<?xml version="1.0" encoding="UTF-8" standalone="no"?>
<!-- Created with Inkscape (http://www.inkscape.org/) -->

<svg
   width="15.24mm"
   height="128.5mm"
   viewBox="0 0 15.24 128.5"
   version="1.1"
   id="svg5"
   inkscape:version="1.1 (c68e22c387, 2021-05-23)"
   sodipodi:docname="comparator_one.svg"
   xmlns:inkscape="http://www.inkscape.org/namespaces/inkscape"
   xmlns:sodipodi="http://sodipodi.sourceforge.net/DTD/sodipodi-0.dtd"
   xmlns:xlink="http://www.w3.org/1999/xlink"
   xmlns="http://www.w3.org/2000/svg"
   xmlns:svg="http://www.w3.org/2000/svg">
  <sodipodi:namedview
     id="namedview7"
     pagecolor="#505050"
     bordercolor="#eeeeee"
     borderopacity="1"
     inkscape:pageshadow="0"
     inkscape:pageopacity="0"
     inkscape:pagecheckerboard="0"
     inkscape:document-units="mm"
     showgrid="false"
     inkscape:snap-bbox="true"
     inkscape:bbox-paths="true"
     inkscape:bbox-nodes="true"
     inkscape:snap-bbox-edge-midpoints="true"
     inkscape:snap-bbox-midpoints="true"
     inkscape:snap-midpoints="true"
     inkscape:snap-object-midpoints="true"
     inkscape:snap-intersection-paths="true"
     inkscape:snap-global="true"
     inkscape:zoom="1.4142136"
     inkscape:cx="111.01576"
     inkscape:cy="348.25009"
     inkscape:window-width="1315"
     inkscape:window-height="1003"
     inkscape:window-x="1173"
     inkscape:window-y="69"
     inkscape:window-maximized="0"
     inkscape:current-layer="layer4"
     inkscape:snap-smooth-nodes="true"
     inkscape:object-paths="true"
     inkscape:snap-center="true"
     showguides="true"
     inkscape:guide-bbox="true">
    <sodipodi:guide
       position="0,128.5"
       orientation="0,57.599999"
       id="guide846" />
    <sodipodi:guide
       position="15.24,128.5"
       orientation="485.66929,0"
       id="guide848" />
    <sodipodi:guide
       position="15.24,0"
       orientation="0,-57.599999"
       id="guide850" />
    <sodipodi:guide
       position="7.62,1.39377"
       orientation="-485.66929,0"
       id="guide852" />
    <sodipodi:guide
       position="0,128.5"
       orientation="0,57.599999"
       id="guide29305" />
    <sodipodi:guide
       position="15.24,128.5"
       orientation="485.66929,0"
       id="guide29307" />
    <sodipodi:guide
       position="15.24,0"
       orientation="0,-57.599999"
       id="guide29309" />
    <sodipodi:guide
       position="0,0"
       orientation="-485.66929,0"
       id="guide29311" />
    <sodipodi:guide
       position="5.876638,8.0020102"
       orientation="0,-1"
       id="guide892" />
  </sodipodi:namedview>
  <defs
     id="defs2">
    <linearGradient
       inkscape:collect="always"
       id="linearGradient4410">
      <stop
         style="stop-color:#070807;stop-opacity:1;"
         offset="0"
         id="stop4406" />
      <stop
         style="stop-color:#101010;stop-opacity:1"
         offset="1"
         id="stop4408" />
    </linearGradient>
    <linearGradient
       inkscape:collect="always"
       xlink:href="#linearGradient4410"
       id="linearGradient4412"
       x1="15.24"
       y1="118.62251"
       x2="3.3525896"
       y2="15.776893"
       gradientUnits="userSpaceOnUse" />
    <linearGradient
       inkscape:collect="always"
       xlink:href="#linearGradient2120"
       id="linearGradient4041"
       gradientUnits="userSpaceOnUse"
       x1="13.626041"
       y1="120.49798"
       x2="9.1281252"
       y2="8.277565"
       gradientTransform="scale(2.8346457,3.7795276)" />
    <linearGradient
       inkscape:collect="always"
       id="linearGradient2120">
      <stop
         style="stop-color:#4c417c;stop-opacity:1;"
         offset="0"
         id="stop2116" />
      <stop
         style="stop-color:#602560;stop-opacity:1"
         offset="1"
         id="stop2118" />
    </linearGradient>
  </defs>
  <g
     inkscape:label="Layer 1"
     inkscape:groupmode="layer"
     id="layer1"
     style="display:inline"
     sodipodi:insensitive="true">
    <rect
       style="fill:url(#linearGradient4412);fill-opacity:1;stroke-width:0.338;stroke-miterlimit:10"
       id="rect898"
       width="15.24"
       height="128.5"
       x="0"
       y="3.0689769e-06" />
  </g>
  <g
     inkscape:groupmode="layer"
     id="layer4"
     inkscape:label="grad"
     style="display:inline"
     sodipodi:insensitive="true">
    <path
       id="path4037"
       clip-path="none"
       style="display:inline;fill:url(#linearGradient4041);fill-opacity:1;stroke:none;stroke-width:1.51483;stroke-linecap:square;stroke-miterlimit:10;stroke-opacity:0.552941;paint-order:stroke fill markers;stop-color:#000000"
       d="M 0,0 V 1.2773438 H 57.599609 V 0 Z M 0,4.546875 V 5.9863281 H 57.599609 V 4.546875 Z M 0,8.5195312 V 9.7949219 H 57.599609 V 8.5195312 Z m 0,2.7011718 v 1.136719 h 57.599609 v -1.136719 z m 0,2.6875 v 0.900391 h 57.599609 v -0.900391 z m 0,2.361328 v 0.523438 h 57.599609 v -0.523438 z m 9.4082031,13.0625 -0.9238281,1.78711 -3.0742188,7.996093 c -0.041085,0.102728 -0.098744,0.195177 -0.1757812,0.277344 -0.077037,0.08217 -0.166092,0.141786 -0.2636719,0.177734 L 4.2851562,39.785156 V 40.1875 H 7.359375 V 39.785156 L 6.0507812,39.470703 7.2207031,36.257812 h 3.7910159 l 1.248047,3.244141 -1.333985,0.283203 V 40.1875 h 3.806641 v -0.402344 l -0.685547,-0.214844 c -0.09758,-0.03081 -0.184682,-0.08775 -0.261719,-0.169921 -0.07704,-0.08731 -0.136648,-0.179757 -0.177734,-0.277344 L 9.8085938,29.332031 Z M 9.0859375,31.3125 h 0.021484 L 9.4785156,32.351562 10.75,35.587891 H 7.4824219 Z M 4.2851562,79.060547 v 0.400391 l 1.0175782,0.230468 c 0.097582,0.0257 0.1793296,0.07727 0.2460937,0.154297 0.066767,0.07703 0.099609,0.174846 0.099609,0.292969 v 8.537109 c 0,0.113008 -0.032843,0.206177 -0.099609,0.283203 -0.066767,0.07705 -0.1485139,0.128622 -0.2460937,0.154297 l -1.0175782,0.240235 v 0.40039 h 4.1757813 c 0.3492346,0 0.6995937,-0.01873 1.0488281,-0.05469 0.3492347,-0.04107 0.6815804,-0.108725 1.0000004,-0.201172 0.318419,-0.09245 0.617198,-0.215062 0.894531,-0.369141 0.277332,-0.154084 0.516499,-0.344347 0.716797,-0.570312 0.205432,-0.225976 0.363575,-0.495309 0.476562,-0.808594 0.118123,-0.313283 0.177735,-0.672395 0.177735,-1.078125 0,-0.385184 -0.07907,-0.732868 -0.238282,-1.041016 -0.154074,-0.313272 -0.368427,-0.57993 -0.640625,-0.800781 -0.267061,-0.220838 -0.582623,-0.392362 -0.947265,-0.515625 -0.364642,-0.128428 -0.753922,-0.199474 -1.1699221,-0.214844 v -0.0078 C 10.128532,83.99935 10.4441,83.87211 10.726562,83.712891 c 0.282469,-0.164354 0.524313,-0.358019 0.72461,-0.583985 0.200295,-0.225975 0.353085,-0.481202 0.460937,-0.763672 0.107853,-0.287604 0.16211,-0.597812 0.16211,-0.93164 0,-0.308148 -0.05426,-0.60425 -0.16211,-0.886719 -0.107851,-0.287599 -0.306145,-0.538196 -0.59375,-0.753906 C 11.03589,79.572141 10.643933,79.395262 10.140625,79.261719 9.6424523,79.128201 9.0059742,79.060547 8.2304688,79.060547 Z m 2.7890626,0.625 h 0.9628906 c 0.4262715,0 0.7987678,0.04355 1.1171875,0.130859 0.3184194,0.0873 0.5797238,0.223309 0.7851562,0.408203 0.2105689,0.18489 0.3679879,0.422102 0.4707029,0.714844 0.107853,0.287605 0.16211,0.635289 0.16211,1.041016 0,0.30814 -0.04891,0.585505 -0.146485,0.832031 -0.09244,0.246526 -0.249863,0.453573 -0.4707029,0.623047 -0.2157037,0.169479 -0.4991453,0.302084 -0.8535156,0.394531 -0.3543705,0.08731 -0.7891543,0.130858 -1.3027344,0.13086 H 7.0742188 Z m 0,4.867187 h 1.2246093 c 0.5084442,0 0.9459051,0.04355 1.3105469,0.13086 0.3697789,0.0873 0.671957,0.225981 0.908203,0.416015 0.236246,0.190025 0.409726,0.4399 0.517578,0.748047 0.112988,0.303013 0.167969,0.678185 0.167969,1.125 0,0.760099 -0.20437,1.309475 -0.615234,1.648438 -0.410865,0.333828 -1.033235,0.5 -1.8652348,0.5 H 7.0742188 Z M 31.646484,116.26953 c -1.763206,-0.0542 -3.193349,2.46185 -4.759765,0.94922 -1.409694,-0.79181 -3.160882,0.14601 -4.710938,0.043 -1.322701,1.58857 -3.107316,1.54451 -4.74414,0.4414 -1.417946,-0.41135 -3.006843,-2.20047 -4.298829,-0.5332 -1.351835,1.29464 -3.082714,0.96421 -4.6386714,0.28516 -1.9283478,-1.08384 -3.6357854,0.0769 -4.9238281,1.47656 C 2.4841448,119.27732 -0.04825262,116.99674 0,118.67188 v 11.19726 c 0.29222241,-2.60211 2.3259312,-0.99065 3.9316406,-1.78906 1.2004581,-0.70106 2.4801638,1.31261 3.546875,-0.19922 0.8454966,0.51027 2.4214877,-0.26319 2.5917964,-0.37109 0.466302,1.48938 3.18521,-0.94265 4.457032,-0.20704 0.799742,0.27939 3.36197,-0.0728 2.472656,-0.27148 2.000638,0.15662 4.478212,0.69055 6.125,-0.75781 1.621788,-1.53411 3.416713,0.62654 5.080078,0.91601 1.4854,-0.0934 2.35099,1.90466 4.113281,0.80664 1.809345,-0.51673 3.796775,-0.99022 5.515625,0.0801 2.151576,0.77873 4.428873,0.75213 6.671875,0.48633 2.494545,-0.20296 5.204288,-0.85171 7.509766,0.48242 1.729429,0.61112 3.919798,1.14668 5.583984,0.79492 v -7.16992 c -2.623846,1.414 -5.521758,-0.86519 -8.203125,0.25977 -2.453083,1.32842 -4.791758,-0.84631 -6.933593,-1.81836 -0.814557,-0.77178 -4.80723,1.02667 -2.300782,-0.23633 0.539116,-1.68082 -3.365398,-2.81794 -4.154297,-0.91992 -1.955088,0.36478 -1.616992,-3.72142 -4.003906,-3.63867 -0.120644,-0.0284 -0.239875,-0.0433 -0.357422,-0.0469 z m -26.6718746,23.8125 v 1.0625 l 5.9707026,3.08985 -5.9707026,3.0957 v 1.0625 l 7.1113286,-3.70508 v -0.90039 z m 7.1113286,29.93164 -7.1113286,3.70703 v 0.90039 l 7.1113286,3.70508 v -1.0625 l -5.9628911,-3.09765 5.9628911,-3.0879 z M 0,208.13281 v 0.52344 h 57.599609 v -0.52344 z m 0,1.98438 v 0.90234 h 57.599609 v -0.90234 z m 0,2.45117 v 1.13672 h 57.599609 v -1.13672 z m 0,2.5625 v 1.27734 h 57.599609 v -1.27734 z m 0,3.80859 v 1.43946 h 57.599609 v -1.43946 z m 0,4.70899 v 2.03125 h 57.599609 v -2.03125 z m 0,5.30859 v 1.43164 h 57.599609 v -1.43164 z m 0,3.96289 v 1.27735 h 57.599609 v -1.27735 z m 0,2.71094 v 1.12891 h 57.599609 v -1.12891 z m 0,2.68555 v 0.90039 h 57.599609 v -0.90039 z m 0,2.36328 v 0.51562 h 57.599609 v -0.51562 z m 9.3105469,21.875 c -0.6824999,0.016 -1.3198872,0.15302 -1.9121094,0.4082 -0.6265676,0.26706 -1.1705901,0.64564 -1.6328125,1.13867 -0.4622221,0.4879 -0.8240117,1.07743 -1.0859375,1.76563 -0.2619258,0.6882 -0.3945313,1.44729 -0.3945313,2.27929 0,0.86282 0.121898,1.63798 0.3632813,2.32618 0.2465184,0.68306 0.5922478,1.26455 1.0390625,1.74218 0.4468147,0.47763 0.9874369,0.84478 1.6191406,1.10157 0.6317035,0.25164 1.3392224,0.37695 2.125,0.37695 0.3851853,0 0.7603584,-0.0543 1.1250004,-0.16211 0.369777,-0.10271 0.718183,-0.23336 1.046875,-0.39258 0.328691,-0.16433 0.632822,-0.34121 0.910156,-0.53125 0.28247,-0.19516 0.530391,-0.38274 0.746094,-0.5625 v -0.7168 h -0.183594 c -0.159209,0.13866 -0.338765,0.28805 -0.539063,0.44727 -0.19516,0.15921 -0.423621,0.31128 -0.685547,0.45508 -0.261922,0.13866 -0.558027,0.25325 -0.886718,0.3457 -0.328692,0.0924 -0.698511,0.13867 -1.1093752,0.13867 -1.2839504,0 -2.2707871,-0.40266 -2.9589844,-1.20898 -0.6881973,-0.81146 -1.03125,-2.0214 -1.03125,-3.62891 0,-0.76523 0.076395,-1.43455 0.2304687,-2.00976 0.1592099,-0.57521 0.3796404,-1.05622 0.6621094,-1.44141 0.2876049,-0.38518 0.6272572,-0.67325 1.0175781,-0.86328 0.3954568,-0.19003 0.8302408,-0.28516 1.3027344,-0.28516 0.2105671,0 0.4256441,0.0187 0.6464844,0.0547 0.2259744,0.0308 0.4490816,0.077 0.6699216,0.13867 0.220839,0.0616 0.432515,0.13268 0.632813,0.21485 0.200295,0.077 0.382528,0.16074 0.546875,0.24804 0.0719,0.0411 0.13759,0.0873 0.199219,0.13868 0.06163,0.0462 0.102511,0.11458 0.123046,0.20703 l 0.462891,1.38672 h 0.492187 v -2.51954 c -0.210563,-0.0667 -0.455812,-0.13512 -0.738281,-0.20703 -0.282469,-0.0719 -0.57857,-0.13686 -0.886719,-0.19336 -0.308144,-0.0565 -0.618356,-0.10271 -0.93164,-0.13867 -0.3081487,-0.036 -0.5908665,-0.0527 -0.8476564,-0.0527 -0.045901,0 -0.091219,-0.001 -0.1367187,0 z m -5.0253907,50.01172 v 0.40234 l 1.0175782,0.23047 c 0.097582,0.0257 0.1793296,0.0773 0.2460937,0.1543 0.066767,0.077 0.099609,0.17484 0.099609,0.29296 v 8.53516 c 0,0.11301 -0.032843,0.20813 -0.099609,0.28516 -0.066767,0.077 -0.1485139,0.12862 -0.2460937,0.15429 l -1.0175782,0.23829 v 0.40039 h 4.484375 c 0.7292838,0 1.4200188,-0.10584 2.0722658,-0.31641 0.652247,-0.21057 1.22036,-0.53416 1.703125,-0.9707 0.487901,-0.43655 0.871828,-0.98592 1.154297,-1.64844 0.282469,-0.66766 0.423828,-1.45692 0.423828,-2.3711 0,-0.71383 -0.08442,-1.34427 -0.253906,-1.88867 -0.164346,-0.54439 -0.384777,-1.0147 -0.66211,-1.41015 -0.277333,-0.4006 -0.598249,-0.73294 -0.96289,-1 -0.364642,-0.26706 -0.745169,-0.48141 -1.140625,-0.64063 -0.390322,-0.16433 -0.784955,-0.27893 -1.1855472,-0.3457 -0.3954568,-0.0668 -0.7679532,-0.10156 -1.1171876,-0.10156 z m 2.7890626,0.625 h 1.3398437 c 0.6162963,0 1.1790578,0.11727 1.6874995,0.35351 0.508445,0.23111 0.943229,0.56273 1.302735,0.99414 0.364642,0.43141 0.644684,0.95599 0.839844,1.57227 0.200297,0.6163 0.300781,1.30971 0.300781,2.08008 0,0.7036 -0.07567,1.32937 -0.22461,1.8789 -0.148934,0.54953 -0.374722,1.01448 -0.677734,1.39453 -0.303012,0.38006 -0.683539,0.67081 -1.140625,0.8711 -0.457086,0.19517 -0.9957554,0.29297 -1.6171874,0.29297 H 7.0742188 Z m 49.4062502,30.59765 c -1.637413,1.49225 -2.023508,3.91486 -3.617188,5.39453 -1.254969,1.76413 -3.450515,1.87189 -5.138672,3.08008 -1.500525,1.08111 -2.911386,2.49487 -4.886718,2.56836 -3.269231,0.41366 -6.703259,1.2567 -9.914063,0.084 -1.731649,-0.44121 -3.578795,-1.47603 -5.324219,-0.45508 -1.967333,0.91092 -3.947639,2.98008 -6.287109,1.99023 -1.626259,-0.87936 -3.50296,-1.02311 -5.246094,-0.4082 -2.45532,0.51861 -5.028907,0.75132 -7.4589841,-0.0352 C 6.7999683,355.15352 4.7305238,355.28708 2.859375,354.63867 2.0860763,354.25476 0.28440496,352.8858 0,353.71289 v 0.69531 9.37891 c 1.6871292,-2.1591 3.9808906,0.14321 5.9941406,-0.38672 2.6892197,-0.54067 5.5046594,-0.0538 8.1230474,-1.00781 1.961138,-0.74726 3.718022,0.8061 5.642578,0.74414 1.832033,-0.31763 3.135184,-1.94558 5.035156,-2.13281 3.380028,-0.83323 6.901676,-0.9446 10.201172,-2.12305 0.911505,-0.2233 1.230516,-0.5411 0.457031,0.25781 1.528259,1.3248 4.068714,0.94911 6.050781,1.10156 2.249375,-0.35969 4.364904,-1.49271 6.707032,-1.25585 2.668754,0.27828 4.977768,-1.19829 6.880859,-2.90235 0.905712,-0.69073 2.156,-0.87707 2.507812,-1.70703 v -1.11719 -8.99023 c -0.579125,0.45791 -1.349166,0.56033 -1.11914,-0.47852 z M 4.9746094,373.58789 v 1.0625 l 5.9707026,3.08984 -5.9707026,3.09766 v 1.0625 l 7.1113286,-3.70508 v -0.90234 z m 7.1113286,29.93359 -7.1113286,3.70508 v 0.90039 l 7.1113286,3.70703 v -1.06445 l -5.9628911,-3.0957 5.9628911,-3.08985 z m -10.7988286,23.9375 a 0.46468926,0.46468926 0 0 0 -0.46484378,0.46485 0.46468926,0.46468926 0 0 0 0.46484378,0.46484 0.46468926,0.46468926 0 0 0 0.4648437,-0.46484 0.46468926,0.46468926 0 0 0 -0.4648437,-0.46485 z m 50.9179686,2.44727 a 0.46468927,0.46468927 0 0 0 -0.46289,0.46484 0.46468927,0.46468927 0 0 0 0.46289,0.46485 0.46468927,0.46468927 0 0 0 0.464844,-0.46485 0.46468927,0.46468927 0 0 0 -0.464844,-0.46484 z M 2.375,431.19141 A 1.5896893,1.5896893 0 0 0 0.78515625,432.78125 1.5896893,1.5896893 0 0 0 2.375,434.37109 1.5896893,1.5896893 0 0 0 3.9648438,432.78125 1.5896893,1.5896893 0 0 0 2.375,431.19141 Z m 51.0625,2.15625 a 0.83968927,0.83968927 0 0 0 -0.839844,0.83984 0.83968927,0.83968927 0 0 0 0.839844,0.83984 0.83968927,0.83968927 0 0 0 0.839844,-0.83984 0.83968927,0.83968927 0 0 0 -0.839844,-0.83984 z m -46.09375,1.125 a 1.2459393,1.2459393 0 0 0 -1.2460938,1.24609 1.2459393,1.2459393 0 0 0 1.2460938,1.24609 1.2459393,1.2459393 0 0 0 1.2460938,-1.24609 1.2459393,1.2459393 0 0 0 -1.2460938,-1.24609 z m 49.748047,0.79882 c -0.900264,0.0228 -1.623047,0.76027 -1.623047,1.66602 0,0.92013 0.745878,1.66602 1.666016,1.66602 0.157001,0 0.464843,-0.0664 0.464843,-0.0664 v -3.18945 c 0,0 -0.290607,-0.0762 -0.464843,-0.0762 -0.01438,0 -0.02868,-3.6e-4 -0.04297,0 z M 2.25,436.16016 A 0.46468926,0.46468926 0 0 0 1.7851562,436.625 0.46468926,0.46468926 0 0 0 2.25,437.08984 0.46468926,0.46468926 0 0 0 2.7148438,436.625 0.46468926,0.46468926 0 0 0 2.25,436.16016 Z m 47.777344,0.0137 a 0.46468927,0.46468927 0 0 0 -0.464844,0.46484 0.46468927,0.46468927 0 0 0 0.464844,0.46485 0.46468927,0.46468927 0 0 0 0.464844,-0.46485 0.46468927,0.46468927 0 0 0 -0.464844,-0.46484 z m 2.61914,1.60156 a 1.2374368,1.2374368 0 0 0 -1.236328,1.23633 1.2374368,1.2374368 0 0 0 1.236328,1.23828 1.2374368,1.2374368 0 0 0 1.238282,-1.23828 1.2374368,1.2374368 0 0 0 -1.238282,-1.23633 z M 5.03125,438.09766 A 0.46468926,0.46468926 0 0 0 4.5664062,438.5625 0.46468926,0.46468926 0 0 0 5.03125,439.02734 0.46468926,0.46468926 0 0 0 5.4960938,438.5625 0.46468926,0.46468926 0 0 0 5.03125,438.09766 Z m -3,0.9375 A 0.83968926,0.83968926 0 0 0 1.1914062,439.875 0.83968926,0.83968926 0 0 0 2.03125,440.71484 0.83968926,0.83968926 0 0 0 2.8710938,439.875 0.83968926,0.83968926 0 0 0 2.03125,439.03516 Z m 54.21875,0.875 A 0.46468927,0.46468927 0 0 0 55.785156,440.375 0.46468927,0.46468927 0 0 0 56.25,440.83984 0.46468927,0.46468927 0 0 0 56.714844,440.375 0.46468927,0.46468927 0 0 0 56.25,439.91016 Z m -48.5957031,1.0332 v 0.33203 23.37109 c -0.013806,-5e-5 -0.027354,-6.8e-4 -0.041016,0 -0.4436691,0.0225 -0.796879,0.3907 -0.796875,0.83985 1.63e-5,0.46308 0.3750736,0.83876 0.8378907,0.83984 v 2.2168 0.33203 H 4.1523438 0 v 0.52539 H 57.599609 V 468.875 h -4.388671 -3.265626 v -0.33203 -27.26758 -0.33203 H 49.28125 v 0.33203 27.26758 0.33203 H 8.3203125 v -0.33203 -27.26758 -0.33203 z M 53.210938,468.875 c 0.0136,-0.0601 0.01953,-0.12325 0.01953,-0.1875 1.5e-5,-0.46363 -0.376092,-0.83984 -0.839844,-0.83984 -0.46374,0 -0.837906,0.37609 -0.837891,0.83984 0,0.0639 0.0059,0.12583 0.01953,0.18555 z m -49.0585942,0 0.00195,-0.002 c 0.01226,-0.0208 0.1100285,-0.18996 0.1113281,-0.29883 v -0.002 c -9.278e-4,-0.25584 -0.2087754,-0.46289 -0.4648438,-0.46289 -0.01203,0 -0.023356,-9e-4 -0.035156,0 -0.2399359,0.0182 -0.4296856,0.22006 -0.4296875,0.46484 -8e-7,0.1063 0.09556,0.2762 0.1074219,0.29687 z M 52.867188,441.50977 a 0.83968927,0.83968927 0 0 0 -0.839844,0.83984 0.83968927,0.83968927 0 0 0 0.839844,0.83984 0.83968927,0.83968927 0 0 0 0.839843,-0.83984 0.83968927,0.83968927 0 0 0 -0.839843,-0.83984 z M 5.3125,442.03516 A 0.83968926,0.83968926 0 0 0 4.4726562,442.875 0.83968926,0.83968926 0 0 0 5.3125,443.71484 0.83968926,0.83968926 0 0 0 6.1523438,442.875 0.83968926,0.83968926 0 0 0 5.3125,442.03516 Z m 47.974609,1.91992 a 0.46468927,0.46468927 0 0 0 -0.464843,0.46484 0.46468927,0.46468927 0 0 0 0.464843,0.46485 0.46468927,0.46468927 0 0 0 0.464844,-0.46485 0.46468927,0.46468927 0 0 0 -0.464844,-0.46484 z M 2.125,444.41016 A 0.46468926,0.46468926 0 0 0 1.6601562,444.875 0.46468926,0.46468926 0 0 0 2.125,445.33984 0.46468926,0.46468926 0 0 0 2.5898438,444.875 0.46468926,0.46468926 0 0 0 2.125,444.41016 Z m 53.460938,0.44336 a 0.83968927,0.83968927 0 0 0 -0.839844,0.83984 0.83968927,0.83968927 0 0 0 0.839844,0.83984 0.83968927,0.83968927 0 0 0 0.839843,-0.83984 0.83968927,0.83968927 0 0 0 -0.839843,-0.83984 z M 5.78125,445.16016 A 0.46468926,0.46468926 0 0 0 5.3164062,445.625 0.46468926,0.46468926 0 0 0 5.78125,446.08984 0.46468926,0.46468926 0 0 0 6.2460938,445.625 0.46468926,0.46468926 0 0 0 5.78125,445.16016 Z m 6.300781,1.36914 v 2.56054 l 12.203125,6.3125 -12.203125,6.32813 v 2.54492 l 15.070313,-7.83984 v -2.05078 z m 33.435547,0 -15.068359,7.85547 v 2.05078 l 15.068359,7.83984 v -2.54492 l -12.203125,-6.32813 12.203125,-6.3125 z m 8.857422,0.0684 a 0.46468927,0.46468927 0 0 0 -0.464844,0.46484 0.46468927,0.46468927 0 0 0 0.464844,0.46484 0.46468927,0.46468927 0 0 0 0.464844,-0.46484 A 0.46468927,0.46468927 0 0 0 54.375,446.5977 Z m -50.640625,0.79687 a 0.83968926,0.83968926 0 0 0 -0.8398438,0.83985 0.83968926,0.83968926 0 0 0 0.8398438,0.83984 0.83968926,0.83968926 0 0 0 0.8398438,-0.83984 0.83968926,0.83968926 0 0 0 -0.8398438,-0.83985 z m 48.695313,0.64649 a 0.83968927,0.83968927 0 0 0 -0.839844,0.83984 0.83968927,0.83968927 0 0 0 0.839844,0.83984 0.83968927,0.83968927 0 0 0 0.839843,-0.83984 0.83968927,0.83968927 0 0 0 -0.839843,-0.83984 z M 5.90625,448.12896 A 0.83968926,0.83968926 0 0 0 5.0664062,448.9688 0.83968926,0.83968926 0 0 0 5.90625,449.80864 0.83968926,0.83968926 0 0 0 6.7460938,448.9688 0.83968926,0.83968926 0 0 0 5.90625,448.12896 Z m 49.085938,1.00586 a 0.83968927,0.83968927 0 0 0 -0.839844,0.83984 0.83968927,0.83968927 0 0 0 0.839844,0.83984 0.83968927,0.83968927 0 0 0 0.839843,-0.83984 0.83968927,0.83968927 0 0 0 -0.839843,-0.83984 z M 2.6875,450.59766 A 0.46468926,0.46468926 0 0 0 2.2226562,451.0625 0.46468926,0.46468926 0 0 0 2.6875,451.52734 0.46468926,0.46468926 0 0 0 3.1523438,451.0625 0.46468926,0.46468926 0 0 0 2.6875,450.59766 Z m 50.625,0.8125 a 0.46468927,0.46468927 0 0 0 -0.464844,0.46484 0.46468927,0.46468927 0 0 0 0.464844,0.46484 0.46468927,0.46468927 0 0 0 0.464844,-0.46484 0.46468927,0.46468927 0 0 0 -0.464844,-0.46484 z m -48.140625,0.23437 a 0.83968926,0.83968926 0 0 0 -0.8398438,0.83985 0.83968926,0.83968926 0 0 0 0.8398438,0.83984 0.83968926,0.83968926 0 0 0 0.8398438,-0.83984 0.83968926,0.83968926 0 0 0 -0.8398438,-0.83985 z m 50.015625,0.20313 a 0.46468927,0.46468927 0 0 0 -0.464844,0.46484 0.46468927,0.46468927 0 0 0 0.464844,0.46484 0.46468927,0.46468927 0 0 0 0.464844,-0.46484 0.46468927,0.46468927 0 0 0 -0.464844,-0.46484 z m -1.632812,1.53711 a 0.83968927,0.83968927 0 0 0 -0.839844,0.83984 0.83968927,0.83968927 0 0 0 0.839844,0.83984 0.83968927,0.83968927 0 0 0 0.839843,-0.83984 0.83968927,0.83968927 0 0 0 -0.839843,-0.83984 z M 3.5625,454.96094 A 0.46468926,0.46468926 0 0 0 3.0976562,455.42578 0.46468926,0.46468926 0 0 0 3.5625,455.89062 0.46468926,0.46468926 0 0 0 4.0273438,455.42578 0.46468926,0.46468926 0 0 0 3.5625,454.96094 Z m 48.046875,1.29297 a 0.46468927,0.46468927 0 0 0 -0.464844,0.46484 0.46468927,0.46468927 0 0 0 0.464844,0.46484 0.46468927,0.46468927 0 0 0 0.464844,-0.46484 0.46468927,0.46468927 0 0 0 -0.464844,-0.46484 z M 55.25,457.34766 A 0.46468927,0.46468927 0 0 0 54.785156,457.8125 0.46468927,0.46468927 0 0 0 55.25,458.27734 0.46468927,0.46468927 0 0 0 55.714844,457.8125 0.46468927,0.46468927 0 0 0 55.25,457.34766 Z m -2.078125,0.0781 a 0.83968927,0.83968927 0 0 0 -0.839844,0.83984 0.83968927,0.83968927 0 0 0 0.839844,0.83985 0.83968927,0.83968927 0 0 0 0.839844,-0.83985 0.83968927,0.83968927 0 0 0 -0.839844,-0.83984 z m -48.46875,0.5625 a 0.83968926,0.83968926 0 0 0 -0.8398438,0.83984 0.83968926,0.83968926 0 0 0 0.8398438,0.83985 0.83968926,0.83968926 0 0 0 0.8398438,-0.83985 0.83968926,0.83968926 0 0 0 -0.8398438,-0.83984 z m 50.757813,2.11524 a 0.83968927,0.83968927 0 0 0 -0.839844,0.83984 0.83968927,0.83968927 0 0 0 0.839844,0.83984 0.83968927,0.83968927 0 0 0 0.839843,-0.83984 0.83968927,0.83968927 0 0 0 -0.839843,-0.83984 z M 4.828125,461.73826 A 0.83968926,0.83968926 0 0 0 3.9882812,462.5781 0.83968926,0.83968926 0 0 0 4.828125,463.41795 0.83968926,0.83968926 0 0 0 5.6679688,462.5781 0.83968926,0.83968926 0 0 0 4.828125,461.73826 Z M 51.75,462.84766 A 0.46468927,0.46468927 0 0 0 51.285156,463.3125 0.46468927,0.46468927 0 0 0 51.75,463.77734 0.46468927,0.46468927 0 0 0 52.214844,463.3125 0.46468927,0.46468927 0 0 0 51.75,462.84766 Z m -45.125,0.1875 A 0.46468926,0.46468926 0 0 0 6.1601562,463.5 0.46468926,0.46468926 0 0 0 6.625,463.96484 0.46468926,0.46468926 0 0 0 7.0898438,463.5 0.46468926,0.46468926 0 0 0 6.625,463.03516 Z m 47.742188,0.44336 a 0.83968927,0.83968927 0 0 0 -0.839844,0.83984 0.83968927,0.83968927 0 0 0 0.839844,0.83984 0.83968927,0.83968927 0 0 0 0.839843,-0.83984 0.83968927,0.83968927 0 0 0 -0.839843,-0.83984 z M 4.0625,465.41016 A 0.46468926,0.46468926 0 0 0 3.5976562,465.875 0.46468926,0.46468926 0 0 0 4.0625,466.33984 0.46468926,0.46468926 0 0 0 4.5273438,465.875 0.46468926,0.46468926 0 0 0 4.0625,465.41016 Z m -2.6699219,0.10742 a 0.83968926,0.83968926 0 0 0 -0.83984372,0.83789 0.83968926,0.83968926 0 0 0 0.83984372,0.83984 0.83968926,0.83968926 0 0 0 0.8398438,-0.83984 0.83968926,0.83968926 0 0 0 -0.8398438,-0.83789 z M 54.75,466.66016 A 0.46468927,0.46468927 0 0 0 54.285156,467.125 0.46468927,0.46468927 0 0 0 54.75,467.58984 0.46468927,0.46468927 0 0 0 55.214844,467.125 0.46468927,0.46468927 0 0 0 54.75,466.66016 Z M 0,470.86133 v 0.90039 h 57.599609 v -0.90039 z m 0,2.45117 v 1.13672 h 57.599609 v -1.13672 z m 0,2.56055 v 1.27734 h 57.599609 v -1.27734 z m 0,3.80859 v 1.43945 h 57.599609 v -1.43945 z m 0,4.71094 v 1.27734 h 57.599609 v -1.27734 z"
       transform="scale(0.26458333)" />
  </g>
  <g
     inkscape:groupmode="layer"
     id="layer3"
     inkscape:label="detail"
     style="display:inline"
     sodipodi:insensitive="true">
    <g
       aria-label="&gt;&lt;"
       id="text8948-7"
       style="font-size:8.46667px;fill:#8e8e8e;fill-opacity:0.262745;stroke-width:0.264583" />
    <g
       id="path20196-3">
      <path
         style="color:#000000;fill:#8e8e8e;fill-opacity:0.262745;stroke-width:0.174917;stroke-linecap:square;stroke-linejoin:round;stroke-miterlimit:10;-inkscape-stroke:none"
         d="m 13.127215,123.96908 v -7.21491"
         id="path1934" />
    </g>
    <g
       id="path2140">
      <path
         style="color:#000000;fill:#8e8e8e;fill-opacity:0.262745;stroke-width:0.174935;stroke-linecap:square;stroke-linejoin:round;stroke-miterlimit:10;-inkscape-stroke:none"
         d="m 2.1133457,123.96906 v -7.21489"
         id="path1942" />
    </g>
    <g
       aria-label="A"
       id="text8813"
       style="font-size:4.58611px;fill:#8e8e8e;fill-opacity:0.262745;stroke-width:0.264583" />
    <g
       aria-label="B"
       id="text15313"
       style="font-size:4.58611px;fill:#8e8e8e;fill-opacity:0.262745;stroke-width:0.264583" />
    <g
       aria-label="C"
       id="text16457"
       style="font-size:4.58611px;fill:#8e8e8e;fill-opacity:0.262745;stroke-width:0.264583" />
    <g
       aria-label="D"
       id="text17211"
       style="font-size:4.58611px;fill:#8e8e8e;fill-opacity:0.262745;stroke-width:0.264583" />
    <g
       aria-label="&gt;"
       id="text17997"
       style="font-size:4.58611px;fill:#8e8e8e;fill-opacity:0.262745;stroke-width:0.264583" />
    <g
       aria-label="&lt;"
       id="text26449"
       style="font-size:4.58611px;fill:#8e8e8e;fill-opacity:0.262745;stroke-width:0.264583" />
    <g
       aria-label="&gt;"
       id="text27773"
       style="font-size:4.58611px;fill:#8e8e8e;fill-opacity:0.262745;stroke-width:0.264583" />
    <g
       aria-label="&lt;"
       id="text27777"
       style="font-size:4.58611px;fill:#8e8e8e;fill-opacity:0.262745;stroke-width:0.264583" />
  </g>
  <g
     inkscape:groupmode="layer"
     id="layer2"
     inkscape:label="components"
     sodipodi:insensitive="true"
     style="display:none">
    <circle
       style="fill:#00ff00;fill-opacity:1;stroke-width:0.338;stroke-miterlimit:10"
       id="circle1243"
       cx="7.6199999"
       cy="85.529213"
       r="3.0534987"
       inkscape:label="input_d" />
    <circle
       style="fill:#00ff00;fill-opacity:1;stroke-width:0.338;stroke-miterlimit:10"
       id="circle1245"
       cx="7.6199999"
       cy="72.41468"
       r="3.0534987"
       inkscape:label="input_c" />
    <circle
       style="fill:#ff00ff;fill-opacity:1;stroke-width:0.0676;stroke-miterlimit:10"
       id="path1451"
       cx="7.6199999"
       cy="94.367546"
       r="0.43182993"
       inkscape:label="bottom_light" />
    <circle
       style="fill:#0000ff;fill-opacity:1;stroke-width:0.338;stroke-miterlimit:10"
       id="circle1533"
       cx="7.6199999"
       cy="101.04441"
       r="3.0534987"
       inkscape:label="output_c" />
    <circle
       style="fill:#0000ff;fill-opacity:1;stroke-width:0.338;stroke-miterlimit:10"
       id="circle1607"
       cx="7.6199999"
       cy="108.96424"
       r="3.0534987"
       inkscape:label="output_d" />
    <circle
       style="fill:#00ff00;fill-opacity:1;stroke-width:0.338;stroke-miterlimit:10"
       id="circle1609"
       cx="7.6199999"
       cy="23.747246"
       r="3.0534987"
       inkscape:label="input_b" />
    <circle
       style="fill:#00ff00;fill-opacity:1;stroke-width:0.338;stroke-miterlimit:10"
       id="circle1611"
       cx="7.6199999"
       cy="10.632714"
       r="3.0534987"
       inkscape:label="input_a" />
    <circle
       style="fill:#ff00ff;fill-opacity:1;stroke-width:0.0676;stroke-miterlimit:10"
       id="circle1613"
       cx="7.6199999"
       cy="32.585579"
       r="0.43182993"
       inkscape:label="top_light" />
    <circle
       style="fill:#0000ff;fill-opacity:1;stroke-width:0.338;stroke-miterlimit:10"
       id="circle1615"
       cx="7.6199999"
       cy="39.262444"
       r="3.0534987"
       inkscape:label="output_a" />
    <circle
       style="fill:#0000ff;fill-opacity:1;stroke-width:0.338;stroke-miterlimit:10"
       id="circle1617"
       cx="7.6199999"
       cy="47.182274"
       r="3.0534987"
       inkscape:label="output_b" />
  </g>
</svg>
