<?xml version="1.0" encoding="UTF-8" standalone="no"?>
<!-- Created with Inkscape (http://www.inkscape.org/) -->

<svg
   width="6.8143244mm"
   height="4.7109337mm"
   viewBox="0 0 6.8143244 4.7109337"
   version="1.1"
   id="svg1225"
   inkscape:version="1.1 (c68e22c387, 2021-05-23)"
   sodipodi:docname="dawn_button_bg_latch.svg"
   xmlns:inkscape="http://www.inkscape.org/namespaces/inkscape"
   xmlns:sodipodi="http://sodipodi.sourceforge.net/DTD/sodipodi-0.dtd"
   xmlns="http://www.w3.org/2000/svg"
   xmlns:svg="http://www.w3.org/2000/svg">
  <sodipodi:namedview
     id="namedview1227"
     pagecolor="#505050"
     bordercolor="#eeeeee"
     borderopacity="1"
     inkscape:pageshadow="0"
     inkscape:pageopacity="0"
     inkscape:pagecheckerboard="0"
     inkscape:document-units="mm"
     showgrid="false"
     fit-margin-top="0"
     fit-margin-left="0"
     fit-margin-right="0"
     fit-margin-bottom="0"
     inkscape:snap-global="true"
     inkscape:zoom="32"
     inkscape:cx="5.046875"
     inkscape:cy="16.203125"
     inkscape:window-width="2560"
     inkscape:window-height="1417"
     inkscape:window-x="3832"
     inkscape:window-y="-8"
     inkscape:window-maximized="1"
     inkscape:current-layer="layer1"
     inkscape:snap-object-midpoints="true"
     inkscape:snap-center="true"
     inkscape:snap-text-baseline="true"
     inkscape:snap-bbox="true"
     inkscape:snap-bbox-midpoints="true"
     inkscape:snap-page="true" />
  <defs
     id="defs1222" />
  <g
     inkscape:label="Layer 1"
     inkscape:groupmode="layer"
     id="layer1"
     transform="translate(-98.748215,-82.050911)">
    <path
       style="display:inline;fill:#872a39;fill-opacity:1;stroke:none;stroke-width:0.0434716;stroke-linecap:square;paint-order:stroke fill markers;stop-color:#000000"
       d="m 98.748215,82.050911 v 4.710824 h 6.841445 v -4.710824 z"
       id="rect12144" />
    <path
       id="path1609"
       style="display:inline;fill:#000000;fill-opacity:1;stroke:none;stroke-width:0.0433861;stroke-linecap:square;paint-order:stroke fill markers;stop-color:#000000"
       d="m 102.43584,86.276148 c 0.005,-0.183458 -0.001,-0.294603 -0.0162,-0.303904 -0.0264,-0.01629 0.0179,-0.160814 0.0493,-0.160814 0.01,0 0.0178,0.06083 0.0178,0.13518 0,0.0858 0.0104,0.140046 0.0286,0.148506 0.0228,0.01066 0.0228,0.01599 0,0.02665 -0.0338,0.01579 -0.0388,0.123755 -0.006,0.123755 0.032,0 0.0287,0.108481 -0.004,0.119253 -0.0457,0.01524 0.0493,0.104963 0.0977,0.0923 0.0237,-0.0062 0.043,-0.02034 0.043,-0.03144 0,-0.0111 0.036,-0.02018 0.08,-0.02018 0.0701,0 0.08,0.0071 0.08,0.05712 0,0.05005 -0.01,0.05712 -0.08,0.05712 -0.044,0 -0.08,0.01028 -0.08,0.02285 0,0.01256 -0.0491,0.02285 -0.10921,0.02285 h -0.10921 z m 1.80311,0.221624 c -0.0983,-0.01906 -0.11908,-0.0335 -0.0978,-0.06795 0.01,-0.01603 0.18246,-0.02437 0.50436,-0.02437 h 0.4893 l 0.006,-0.369386 c 0.005,-0.270611 0.0139,-0.371924 0.0348,-0.378881 0.0157,-0.0052 0.0286,0.0059 0.0286,0.02477 0,0.01885 0.0129,0.03949 0.0286,0.04586 0.0216,0.0087 0.0202,0.01804 -0.006,0.03791 -0.0259,0.01988 -0.0273,0.02916 -0.006,0.03791 0.0211,0.0086 0.0242,0.103481 0.0286,0.363814 v 0.352227 l -0.46265,-0.0026 c -0.25446,-0.0014 -0.50133,-0.01013 -0.54859,-0.01929 z m -4.653757,-0.06947 c 0,-0.01256 -0.03598,-0.02285 -0.07997,-0.02285 -0.04398,0 -0.07996,-0.01028 -0.07996,-0.02285 0,-0.01257 0.04627,-0.02285 0.10281,-0.02285 0.05655,0 0.102812,0.01028 0.102812,0.02285 0,0.01256 0.02057,0.02285 0.0457,0.02285 0.02513,0 0.0457,-0.01028 0.0457,-0.02285 0,-0.01257 0.03085,-0.02285 0.06854,-0.02285 0.0377,0 0.06855,0.01028 0.06855,0.02285 0,0.01256 -0.01542,0.02285 -0.03427,0.02285 -0.01885,0 -0.03427,0.01028 -0.03427,0.02285 0,0.01256 -0.04627,0.02285 -0.10281,0.02285 -0.05654,0 -0.10281,-0.01028 -0.10281,-0.02285 z m 0.297015,-0.04569 c 0,-0.01257 0.0257,-0.02285 0.05711,-0.02285 0.03141,0 0.05712,-0.0092 0.05712,-0.02037 0,-0.0112 0.0257,-0.02682 0.05711,-0.0347 0.0314,-0.0079 0.0571,-0.02442 0.0571,-0.03675 0,-0.01233 0.036,-0.02241 0.08,-0.02241 0.044,0 0.08,-0.01028 0.08,-0.02285 0,-0.01257 0.0154,-0.02285 0.0343,-0.02285 0.0189,0 0.0343,-0.01009 0.0343,-0.02241 0,-0.01233 0.0257,-0.02886 0.0571,-0.03675 0.0314,-0.0079 0.0571,-0.0235 0.0571,-0.03471 0,-0.0112 0.0206,-0.02037 0.0457,-0.02037 0.0251,0 0.0457,-0.01028 0.0457,-0.02285 0,-0.01257 0.0142,-0.02285 0.0315,-0.02285 0.0173,0 0.0443,-0.01542 0.0599,-0.03427 0.0156,-0.01885 0.0477,-0.03427 0.0713,-0.03427 0.0236,0 0.0429,-0.01028 0.0429,-0.02285 0,-0.01256 0.0107,-0.02285 0.0239,-0.02285 0.0131,0 0.0516,-0.0257 0.0854,-0.05712 0.0339,-0.03141 0.0746,-0.05712 0.0904,-0.05712 0.0158,0 0.0288,-0.02056 0.0288,-0.04569 0,-0.02513 0.0133,-0.04569 0.0297,-0.04569 0.0362,0 0.2902,-0.238669 0.2902,-0.272681 0,-0.01338 0.01,-0.02433 0.0213,-0.02433 0.0117,0 0.0278,-0.02056 0.0358,-0.04569 0.0232,-0.07314 0.0571,-0.0528 0.0571,0.03427 0,0.07007 -0.007,0.07997 -0.0571,0.07997 -0.0349,0 -0.0571,0.01301 -0.0571,0.03336 0,0.04088 -0.3498,0.400737 -0.38953,0.400737 -0.0157,0 -0.0635,0.03598 -0.10618,0.07997 -0.0483,0.04974 -0.0995,0.07997 -0.13532,0.07997 -0.0317,0 -0.072,0.01285 -0.0895,0.02856 -0.0756,0.0678 -0.10144,0.08568 -0.12385,0.08568 -0.0131,0 -0.0238,0.01028 -0.0238,0.02285 0,0.01256 -0.0257,0.02285 -0.0571,0.02285 -0.0314,0 -0.0571,0.0094 -0.0571,0.02084 0,0.01146 -0.0436,0.02821 -0.097,0.03723 -0.0533,0.009 -0.11366,0.03562 -0.13406,0.05913 -0.0394,0.04545 -0.201668,0.06146 -0.203054,0.01989 z m 3.198592,-0.12566 c 0,-0.05655 -0.0103,-0.102812 -0.0228,-0.102812 -0.0328,0 -0.0282,-0.06222 0.006,-0.07806 0.0229,-0.01066 0.0229,-0.01599 0,-0.02666 -0.0201,-0.0094 -0.0285,-0.08278 -0.0285,-0.248874 0,-0.193712 0.006,-0.23801 0.0361,-0.249415 0.0502,-0.01927 0.0487,-0.0203 0.0646,0.04325 0.008,0.03142 0.0244,0.05712 0.0367,0.05712 0.0123,0 0.0224,0.02485 0.0224,0.05522 0,0.03037 0.0129,0.06043 0.0285,0.0668 0.0216,0.0087 0.0202,0.01803 -0.006,0.03791 -0.0259,0.01988 -0.0273,0.02917 -0.006,0.03791 0.0157,0.0064 0.0286,0.03643 0.0286,0.0668 0,0.03037 0.0103,0.05522 0.0228,0.05522 0.0126,0 0.0229,0.01496 0.0229,0.03323 0,0.01828 0.0272,0.06044 0.0605,0.09369 0.0487,0.04868 0.0542,0.06439 0.0286,0.08065 -0.044,0.02789 -0.0563,0.02605 -0.089,-0.01337 -0.0156,-0.01885 -0.041,-0.03427 -0.0564,-0.03427 -0.0495,0 -0.10356,0.0815 -0.10356,0.156018 0,0.03985 -0.0103,0.07245 -0.0228,0.07245 -0.0126,0 -0.0228,-0.04627 -0.0228,-0.102812 z m 0.10184,-0.238316 c 0.007,-0.0117 0.003,-0.02772 -0.0101,-0.03562 -0.0128,-0.0079 -0.0232,0.0017 -0.0232,0.02127 0,0.04013 0.0137,0.04604 0.0333,0.01435 z m 0.57787,-0.09053 c -0.022,-0.0223 -0.04,-0.05767 -0.04,-0.07861 0,-0.02094 -0.0103,-0.03807 -0.0228,-0.03807 -0.0126,0 -0.0229,-0.03598 -0.0229,-0.07997 0,-0.04398 -0.0103,-0.07997 -0.0229,-0.07997 -0.0126,0 -0.0228,-0.01385 -0.0228,-0.03077 0,-0.04722 -0.0954,-0.146411 -0.10779,-0.112022 -0.0146,0.04062 -0.12068,0.03641 -0.12068,-0.0048 0,-0.0507 0.17464,-0.217971 0.22757,-0.217971 0.0512,0 0.0672,0.0807 0.0192,0.0967 -0.0209,0.007 -0.0203,0.02627 0.003,0.08187 0.0166,0.04001 0.0392,0.07275 0.0502,0.07275 0.011,0 0.0201,0.0257 0.0201,0.05712 0,0.03554 0.0129,0.05712 0.0343,0.05712 0.021,0 0.0343,0.02137 0.0343,0.05522 0,0.03037 0.009,0.05864 0.0194,0.06283 0.0107,0.0042 0.0251,0.05131 0.0321,0.104716 0.0139,0.106484 -0.0114,0.123489 -0.0801,0.05384 z m -1.95914,-0.253757 c 0,-0.01257 -0.0154,-0.02285 -0.0343,-0.02285 -0.0189,0 -0.0343,-0.01028 -0.0343,-0.02285 0,-0.01363 0.0876,-0.02285 0.21705,-0.02285 h 0.21705 v -0.114236 c 0,-0.05669 -0.0103,-0.114235 -0.0229,-0.114235 -0.0358,0 -0.0302,-0.58724 0.006,-0.601805 0.0216,-0.0087 0.0202,-0.01804 -0.006,-0.03791 -0.0259,-0.01987 -0.0273,-0.02916 -0.006,-0.03791 0.0157,-0.0064 0.0286,-0.02615 0.0286,-0.04395 0,-0.05951 -0.0796,-0.03325 -0.14873,0.04903 -0.0376,0.04477 -0.0812,0.09544 -0.0969,0.112605 -0.0157,0.01717 -0.0286,0.03782 -0.0286,0.0459 0,0.02372 -0.0631,0.07997 -0.0897,0.07997 -0.0135,0 -0.0245,0.01109 -0.0245,0.02465 0,0.01356 -0.0463,0.07092 -0.10281,0.127462 -0.0566,0.05655 -0.10316,0.109712 -0.10358,0.118145 -10e-4,0.02097 -0.0833,0.118143 -0.1,0.118143 -0.0431,0 -0.002,-0.10966 0.0665,-0.175857 0.044,-0.04271 0.08,-0.09259 0.08,-0.110832 0,-0.01824 0.0154,-0.03317 0.0343,-0.03317 0.0189,0 0.0343,-0.01075 0.0343,-0.02388 0,-0.03101 0.10503,-0.136046 0.13605,-0.136046 0.0131,0 0.0239,-0.01075 0.0239,-0.02388 0,-0.01314 0.0231,-0.04863 0.0514,-0.07887 0.0766,-0.08197 0.10852,-0.122257 0.10852,-0.137135 0,-0.0073 0.0206,-0.03541 0.0457,-0.06239 0.0251,-0.02698 0.0457,-0.05739 0.0457,-0.06759 0,-0.0102 -0.38555,-0.01854 -0.85677,-0.01854 -0.47122,0 -0.85677,-0.0059 -0.85677,-0.01306 0,-0.0072 0.015,-0.02808 0.0334,-0.04644 0.0266,-0.02662 0.0422,-0.02787 0.0769,-0.0062 0.0266,0.01658 0.0603,0.0198 0.0866,0.0082 0.0483,-0.02127 0.12915,-0.03477 0.21436,-0.03577 0.33512,-0.0039 0.50264,0.0041 0.50264,0.02415 0,0.03553 0.38123,0.03055 0.39791,-0.0052 0.0107,-0.02285 0.016,-0.02285 0.0267,0 0.007,0.01571 0.0476,0.02856 0.0895,0.02856 0.0419,0 0.0805,-0.01285 0.0858,-0.02856 0.007,-0.02088 0.0183,-0.02194 0.0419,-0.0039 0.0178,0.01355 0.0734,0.02383 0.12366,0.02285 l 0.0914,-0.0018 0.006,-0.451231 c 0.004,-0.274874 0.0149,-0.451231 0.0286,-0.451231 0.0123,0 0.0224,-0.06169 0.0224,-0.137083 0,-0.07616 -0.0102,-0.137083 -0.0228,-0.137083 -0.0126,0 -0.0229,-0.01101 -0.0229,-0.02448 0,-0.04841 0.0668,-0.08976 0.14497,-0.08976 0.0438,0 0.0849,-0.01285 0.0912,-0.02856 0.009,-0.02285 0.0119,-0.02285 0.0133,0 10e-4,0.02015 0.0523,0.02856 0.17317,0.02856 0.16885,0 0.22796,0.03061 0.11423,0.05916 -0.0314,0.0079 -0.0571,0.0235 -0.0571,0.03471 0,0.03016 -0.15466,0.02476 -0.16483,-0.0058 -0.007,-0.0196 -0.0209,-0.0196 -0.0575,0 -0.0268,0.01437 -0.075,0.02612 -0.10693,0.02612 h -0.0581 l 8.7e-4,0.536907 c 8.2e-4,0.508808 0.003,0.536908 0.0434,0.536908 0.05,0 0.18329,-0.125858 0.18329,-0.17311 0,-0.01788 0.0191,-0.03251 0.0425,-0.03251 0.0234,0 0.0618,-0.0257 0.0854,-0.05712 0.0236,-0.03142 0.0559,-0.05712 0.0717,-0.05712 0.0159,0 0.0289,-0.0096 0.0289,-0.02131 0,-0.01172 0.0206,-0.02783 0.0457,-0.03581 0.0251,-0.008 0.0457,-0.03437 0.0457,-0.05866 0,-0.02429 0.011,-0.04416 0.0245,-0.04416 0.0135,0 0.0388,-0.01285 0.0563,-0.02856 0.0692,-0.06205 0.10065,-0.08568 0.11406,-0.08568 0.0186,0 0.0793,-0.06126 0.0793,-0.07996 0,-0.02144 0.062,-0.07997 0.0847,-0.07997 0.0107,0 0.0343,-0.02056 0.0524,-0.0457 0.0181,-0.02513 0.0457,-0.04569 0.0612,-0.04569 0.0156,0 0.0703,-0.04112 0.12154,-0.09139 0.0513,-0.05026 0.10824,-0.09139 0.12658,-0.09139 0.0183,0 0.0333,-0.01028 0.0333,-0.02285 0,-0.01257 0.011,-0.02285 0.0245,-0.02285 0.0135,0 0.0388,-0.01285 0.0563,-0.02856 0.0705,-0.06319 0.10076,-0.08568 0.11546,-0.08568 0.008,0 0.032,-0.01909 0.0524,-0.04243 0.0203,-0.02333 0.0601,-0.04973 0.0884,-0.05866 0.0283,-0.0089 0.0514,-0.02582 0.0514,-0.03754 0,-0.01172 0.0206,-0.02131 0.0457,-0.02131 0.0251,0 0.0457,-0.01028 0.0457,-0.02285 0,-0.01257 0.0246,-0.02285 0.0547,-0.02285 0.0301,0 0.0606,-0.01542 0.0678,-0.03427 0.007,-0.01885 0.034,-0.03427 0.0596,-0.03427 0.0255,0 0.0464,-0.01028 0.0464,-0.02285 0,-0.01257 0.0257,-0.02285 0.0571,-0.02285 0.0314,0 0.0571,-0.01028 0.0571,-0.02285 0,-0.01257 0.0312,-0.02285 0.0693,-0.02285 0.0405,0 0.0747,-0.01424 0.0824,-0.03427 0.008,-0.02115 0.0428,-0.03427 0.0907,-0.03427 0.0426,0 0.0775,-0.01028 0.0775,-0.02285 0,-0.01257 0.0206,-0.02285 0.0457,-0.02285 0.0251,0 0.0457,-0.01028 0.0457,-0.02285 0,-0.01257 0.0514,-0.02285 0.11423,-0.02285 0.0628,0 0.11424,0.0059 0.11424,0.01305 0,0.02721 -0.0601,0.07149 -0.11464,0.08449 -0.17632,0.04201 -0.23617,0.06135 -0.25828,0.08346 -0.0135,0.01354 -0.0585,0.02462 -0.10001,0.02462 -0.0415,0 -0.0754,0.01028 -0.0754,0.02285 0,0.01257 -0.0195,0.02285 -0.0432,0.02285 -0.0238,0 -0.0494,0.01613 -0.057,0.03585 -0.009,0.02382 -0.0291,0.03097 -0.0596,0.02131 -0.0325,-0.01033 -0.0458,-0.0042 -0.0458,0.02127 0,0.02569 -0.0226,0.03581 -0.08,0.03581 -0.044,0 -0.08,0.01028 -0.08,0.02285 0,0.01256 -0.0257,0.02285 -0.0571,0.02285 -0.0355,0 -0.0571,0.01295 -0.0571,0.03427 0,0.01885 -0.0154,0.03427 -0.0343,0.03427 -0.0189,0 -0.0343,0.01028 -0.0343,0.02285 0,0.01257 -0.0169,0.02285 -0.0377,0.02285 -0.0207,0 -0.0726,0.03598 -0.11534,0.07997 -0.0427,0.04398 -0.0931,0.07997 -0.11187,0.07997 -0.0188,0 -0.0589,0.02313 -0.0892,0.05141 -0.0916,0.08569 -0.1227,0.108524 -0.1476,0.108524 -0.0131,0 -0.0238,0.0096 -0.0238,0.02131 0,0.01172 -0.02,0.02767 -0.0445,0.03544 -0.0245,0.0078 -0.0509,0.03417 -0.0587,0.05866 -0.008,0.02449 -0.0302,0.04453 -0.0499,0.04453 -0.0197,0 -0.0683,0.03451 -0.10807,0.07668 -0.0398,0.04218 -0.095,0.0888 -0.12264,0.103616 -0.0277,0.01481 -0.0503,0.04199 -0.0503,0.0604 0,0.01841 -0.0156,0.03347 -0.0347,0.03347 -0.0191,0 -0.0696,0.03598 -0.11233,0.07997 -0.0427,0.04398 -0.0844,0.07997 -0.0926,0.07997 -0.0239,0 -0.0802,0.06297 -0.0802,0.08976 0,0.01346 -0.0117,0.02448 -0.0259,0.02448 -0.0274,0 -0.13395,0.113594 -0.13401,0.142795 -10e-6,0.0094 -0.0195,0.01713 -0.0433,0.01713 -0.0393,0 -0.071,0.04113 -0.071,0.09216 0,0.03103 1.08131,0.02202 1.10411,-0.0092 0.0138,-0.01888 0.022,-0.01815 0.0305,0.0027 0.0137,0.03375 0.16771,0.039 0.16771,0.0057 0,-0.03306 0.15435,-0.02816 0.16549,0.0053 0.007,0.0213 0.0311,0.01903 0.099,-0.0094 0.0703,-0.02942 0.16846,-0.03758 0.4552,-0.03784 0.20105,-2.24e-4 0.38369,0.0048 0.40586,0.01105 0.0643,0.01815 0.0216,0.05379 -0.0645,0.05379 -0.0432,0 -0.0786,0.01028 -0.0786,0.02285 0,0.01257 -0.0154,0.02285 -0.0343,0.02285 -0.0188,0 -0.0343,-0.01028 -0.0343,-0.02285 0,-0.01257 -0.0257,-0.02285 -0.0571,-0.02285 -0.0314,0 -0.0571,0.01028 -0.0571,0.02285 0,0.01469 -0.22783,0.02285 -0.63781,0.02285 -0.48792,0 -0.64096,0.0067 -0.65115,0.02856 -0.0107,0.02285 -0.016,0.02285 -0.0267,0 -0.007,-0.01571 -0.0527,-0.02856 -0.10091,-0.02856 -0.0482,0 -0.0936,0.01285 -0.10091,0.02856 -0.0107,0.02285 -0.016,0.02285 -0.0267,0 -0.01,-0.02091 -0.10154,-0.02856 -0.3427,-0.02856 h -0.32938 l -0.004,0.0971 c -0.002,0.05341 -0.002,0.196659 0,0.318338 0.002,0.135408 -0.006,0.22705 -0.0204,0.236219 -0.0169,0.01043 -0.0164,0.02444 0.002,0.04615 0.0257,0.03093 0.0197,0.228056 -0.0133,0.438837 -0.0128,0.08185 -0.0235,0.0971 -0.068,0.0971 -0.029,0 -0.058,-0.01285 -0.0643,-0.02856 -0.009,-0.02285 -0.0119,-0.02285 -0.0133,0 -0.002,0.03497 -0.27597,0.04064 -0.27597,0.0057 z m 2.26186,0 c 0,-0.01257 -0.011,-0.02285 -0.0245,-0.02285 -0.0397,0 -0.0897,-0.06172 -0.0897,-0.110699 0,-0.02499 -0.0119,-0.04938 -0.0264,-0.05421 -0.0359,-0.01198 -0.029,-0.322803 0.009,-0.38293 0.051,-0.08173 0.0635,-0.0504 0.0635,0.159181 0,0.161303 0.008,0.215222 0.0393,0.251318 0.0479,0.05592 0.15597,0.06033 0.18549,0.0076 0.0199,-0.03557 0.0246,-0.03529 0.0638,0.0039 0.0299,0.02992 0.034,0.04503 0.0139,0.05172 -0.0156,0.0052 -0.0284,0.02402 -0.0284,0.04182 0,0.01929 -0.0231,0.03237 -0.0571,0.03237 -0.0314,0 -0.0571,0.01028 -0.0571,0.02285 0,0.01256 -0.0206,0.02284 -0.0457,0.02284 -0.0251,0 -0.0457,-0.01028 -0.0457,-0.02284 z m -3.56415,-0.352225 c 0,-0.242127 0.008,-0.332432 0.0285,-0.340904 0.0228,-0.0092 0.0228,-0.01188 0,-0.01333 -0.0337,-0.0021 -0.0392,-0.07035 -0.006,-0.07035 0.0126,0 0.0229,-0.04101 0.0229,-0.09113 0,-0.08427 0.052,-0.183039 0.0965,-0.183039 0.0304,0 0.0195,0.103212 -0.0158,0.149852 -0.026,0.03438 -0.0337,0.122652 -0.0343,0.392767 -9.2e-4,0.318503 0.003,0.352342 0.045,0.394113 0.0251,0.02513 0.0714,0.04569 0.10282,0.04569 0.0314,0 0.0571,0.01028 0.0571,0.02285 0,0.01289 -0.0647,0.02285 -0.1485,0.02285 h -0.14851 z m 2.20475,0.05521 c -0.0112,0.02389 -0.0241,-0.04569 -0.0358,-0.04569 -0.0117,0 -0.0213,-0.01542 -0.0213,-0.03427 0,-0.01885 -0.0197,-0.03427 -0.0438,-0.03427 -0.0681,0 -0.1161,-0.02463 -0.1161,-0.05956 0,-0.0175 0.0103,-0.03183 0.0228,-0.03183 0.0126,0 0.0229,-0.01101 0.0229,-0.02448 0,-0.01346 0.0147,-0.03917 0.0326,-0.05712 0.0179,-0.01795 0.0436,-0.03264 0.0571,-0.03264 0.0135,0 0.0245,-0.01507 0.0245,-0.03348 0,-0.04465 0.12635,-0.172141 0.17058,-0.172141 0.0193,0 0.035,0.01028 0.035,0.02285 0,0.01257 -0.0103,0.02285 -0.0228,0.02285 -0.0126,0 -0.0229,0.02194 -0.0229,0.04875 0,0.02681 -0.0268,0.07179 -0.0596,0.09994 -0.0411,0.03534 -0.0512,0.05637 -0.0325,0.0679 0.0361,0.02231 0.2749,-0.0085 0.2749,-0.03546 0,-0.01166 0.0463,-0.0212 0.10281,-0.0212 0.0566,0 0.10281,-0.01028 0.10281,-0.02285 0,-0.01256 0.0213,-0.02285 0.0473,-0.02285 0.0506,0 0.1126,-0.04944 0.1126,-0.08975 0,-0.01346 0.0234,-0.02448 0.0521,-0.02448 0.0286,0 0.0669,-0.02056 0.085,-0.04569 0.0391,-0.05418 0.0685,-0.0591 0.0685,-0.01143 0,0.05047 -0.17535,0.217048 -0.22848,0.217048 -0.0251,0 -0.0457,0.01028 -0.0457,0.02285 0,0.01257 -0.0193,0.02285 -0.0429,0.02285 -0.0236,0 -0.0557,0.01542 -0.0713,0.03427 -0.0163,0.01968 -0.0662,0.03427 -0.11704,0.03427 -0.0487,0 -0.0886,0.01028 -0.0886,0.02285 0,0.01256 -0.0463,0.02285 -0.10281,0.02285 -0.0944,0 -0.10281,0.0047 -0.10281,0.05712 0,0.03142 0.0103,0.05712 0.0228,0.05712 0.0126,0 0.0229,0.02056 0.0229,0.04569 0,0.02993 -0.0152,0.04569 -0.0442,0.04569 -0.0243,0 -0.0507,-0.02056 -0.0587,-0.04569 z m 1.70782,-0.07987 c -0.0157,-0.01784 -0.0286,-0.04315 -0.0286,-0.05625 0,-0.0131 -0.011,-0.02381 -0.0245,-0.02381 -0.0266,0 -0.0897,-0.05624 -0.0897,-0.07997 0,-0.02372 -0.0631,-0.07997 -0.0898,-0.07997 -0.0135,0 -0.0245,-0.02056 -0.0245,-0.0457 0,-0.02513 -0.0103,-0.04569 -0.0228,-0.04569 -0.0126,0 -0.0229,-0.0257 -0.0229,-0.05712 0,-0.06776 0.0366,-0.07589 0.0567,-0.01259 0.008,0.02449 0.0342,0.05088 0.0587,0.05866 0.0245,0.0078 0.0445,0.02372 0.0445,0.03544 0,0.01172 0.036,0.02131 0.08,0.02131 0.0701,0 0.08,-0.0071 0.08,-0.05712 0,-0.03141 -0.0103,-0.05712 -0.0228,-0.05712 -0.0126,0 -0.0229,-0.02571 -0.0229,-0.05712 0,-0.03554 -0.0129,-0.05712 -0.0343,-0.05712 -0.019,0 -0.0343,-0.02031 -0.0343,-0.04569 0,-0.02513 0.0103,-0.04569 0.0229,-0.04569 0.0126,0 0.0229,0.01028 0.0229,0.02285 0,0.01257 0.0154,0.02285 0.0343,0.02285 0.0188,0 0.0343,0.01072 0.0343,0.02381 0,0.0249 0.0228,0.05595 0.10853,0.147604 0.0283,0.03024 0.0514,0.06329 0.0514,0.07344 0,0.01016 0.0257,0.03777 0.0571,0.06136 0.0572,0.04295 0.083,0.173577 0.0343,0.173577 -0.0126,0 -0.0229,-0.01028 -0.0229,-0.02285 0,-0.01256 -0.0154,-0.02285 -0.0343,-0.02285 -0.0213,0 -0.0343,-0.02158 -0.0343,-0.05712 0,-0.03405 -0.0131,-0.05712 -0.0324,-0.05712 -0.0178,0 -0.0376,-0.01285 -0.0439,-0.02856 -0.009,-0.02285 -0.0119,-0.02285 -0.0133,0 -9.5e-4,0.01571 -0.0128,0.02856 -0.0263,0.02856 -0.0275,0 -0.0898,0.05654 -0.0898,0.08148 0,0.0089 0.036,0.04694 0.08,0.08451 0.044,0.03757 0.08,0.07728 0.08,0.08825 0,0.03207 -0.10016,0.02122 -0.13137,-0.01424 z m -4.872154,-0.856862 c 0,0.01314 0.07082,-0.02285 0.166787,-0.02285 0.102052,0 0.178532,-0.01108 0.197054,-0.02856 0.02422,-0.02285 0.03237,-0.02285 0.04074,0 0.01323,0.03607 0.242293,0.03856 0.308083,0.0033 0.0455,-0.02432 0.0855,5.9e-4 0.0866,0.05377 0,0.0094 -0.17958,0.01714 -0.399481,0.01714 -0.251317,0 -0.399824,-0.0085 -0.399824,-0.02285 z m -0.114235,-0.04569 c -0.01257,0 0.01089,-0.02285 0.0242,-0.02285 0.01331,0 0.01784,0.01028 0.01008,0.02285 -0.0078,0.01257 -0.01866,0.02285 -0.0242,0.02285 -0.0055,0 0.0025,-0.02285 -0.01008,-0.02285 z m 1.439369,-0.218681 c 0,-0.02242 0.0641,-0.07833 0.0898,-0.07833 0.0135,0 0.0245,-0.0257 0.0245,-0.05712 0,-0.04254 0.0121,-0.05712 0.0473,-0.05712 0.026,0 0.0617,-0.01285 0.0792,-0.02856 0.0705,-0.06319 0.10076,-0.08568 0.11546,-0.08568 0.008,0 0.032,-0.01909 0.0524,-0.04243 0.0203,-0.02333 0.0601,-0.04973 0.0883,-0.05866 0.0283,-0.0089 0.0514,-0.02582 0.0514,-0.03754 0,-0.01172 0.0197,-0.02131 0.0438,-0.02131 0.0241,0 0.0472,-0.0077 0.0514,-0.01714 0.011,-0.02483 0.15412,-0.0971 0.19224,-0.0971 0.0497,0 0.0385,-0.08638 -0.0133,-0.102812 -0.0251,-0.008 -0.0457,-0.02336 -0.0457,-0.03418 0,-0.01082 -0.0166,-0.03632 -0.037,-0.05667 -0.0203,-0.02034 -0.0325,-0.04146 -0.0271,-0.04693 0.0148,-0.01477 0.15543,0.04208 0.15543,0.06282 0,0.0098 0.0133,0.01784 0.0295,0.01784 0.0162,0 0.0677,0.03598 0.11428,0.07997 0.0466,0.04398 0.095,0.07997 0.10757,0.07997 0.0125,0 0.0228,0.01542 0.0228,0.03427 0,0.01885 -0.0154,0.03427 -0.0343,0.03427 -0.019,0 -0.0343,0.02031 -0.0343,0.04569 0,0.02601 -0.0152,0.04569 -0.0354,0.04569 -0.0195,0 -0.0592,0.0257 -0.0883,0.05712 -0.0291,0.03141 -0.0697,0.05712 -0.0903,0.05712 -0.0206,0 -0.0374,0.01028 -0.0374,0.02285 0,0.01257 -0.0154,0.02285 -0.0343,0.02285 -0.0189,0 -0.0343,-0.0099 -0.0343,-0.02209 0,-0.03493 0.15786,-0.183538 0.19496,-0.183538 0.0184,0 0.0335,-0.01028 0.0335,-0.02285 0,-0.01257 -0.0308,-0.02285 -0.0685,-0.02285 -0.0377,0 -0.0686,0.01028 -0.0686,0.02285 0,0.01257 -0.0308,0.02285 -0.0685,0.02285 -0.0377,0 -0.0685,0.01028 -0.0685,0.02285 0,0.01257 -0.015,0.02285 -0.0332,0.02285 -0.0183,0 -0.0589,0.0257 -0.0904,0.05712 -0.0314,0.03141 -0.0654,0.05712 -0.0755,0.05712 -0.0101,0 -0.0461,0.0257 -0.08,0.05712 -0.0339,0.03142 -0.0679,0.05712 -0.0756,0.05712 -0.0232,0 -0.0793,0.06349 -0.0793,0.08976 0,0.01346 -0.0234,0.02448 -0.0521,0.02448 -0.0286,0 -0.0669,0.02056 -0.085,0.04569 -0.0292,0.04055 -0.13708,0.06623 -0.13708,0.03264 z m 3.17575,-0.02827 c 0,-0.02273 0.0151,-0.06129 0.0336,-0.08568 0.0184,-0.02439 0.0339,-0.06234 0.0343,-0.08433 8.8e-4,-0.02199 0.01,-0.03998 0.0211,-0.03998 0.0112,0 0.0268,-0.0257 0.0347,-0.05712 0.008,-0.03141 0.0244,-0.05712 0.0367,-0.05712 0.0134,0 0.0224,-0.110172 0.0224,-0.274166 0,-0.167547 0.009,-0.274166 0.0229,-0.274166 0.0126,0 0.0229,-0.01028 0.0229,-0.02285 0,-0.01257 -0.0343,-0.02285 -0.0762,-0.02285 -0.0909,0 -0.10538,-0.01123 -0.0901,-0.06986 0.009,-0.03542 0.0318,-0.04437 0.11176,-0.04437 h 0.10014 v 0.319859 c 0,0.181949 -0.009,0.31986 -0.0228,0.31986 -0.0126,0 -0.0228,0.04112 -0.0228,0.09139 0,0.05026 -0.009,0.09139 -0.02,0.09139 -0.011,0 -0.0259,0.02827 -0.0332,0.06283 -0.0147,0.06957 -0.10888,0.188489 -0.14935,0.188489 -0.0142,0 -0.0259,-0.0186 -0.0259,-0.04133 z m -3.27476,-0.933484 c -0.008,-0.0084 -0.0152,-0.03408 -0.0152,-0.05712 0,-0.03954 0.0332,-0.04189 0.59403,-0.04189 h 0.59403 v 0.05712 0.05712 h -0.57879 c -0.32895,0 -0.58566,-0.0069 -0.59404,-0.01523 z M 99.030122,82.6724 c -0.0022,-0.09352 -0.0099,-0.407085 0.03615,-0.411249 0.05856,-0.02247 0.589036,-0.01515 0.626428,0.0086 0.0269,0.01712 0.01831,0.02503 -0.03999,0.03678 -0.04084,0.0082 -0.07425,0.02396 -0.07425,0.03496 0,0.01099 -0.100237,0.01998 -0.222752,0.01996 h -0.222762 l 0.0076,0.299485 c 0.0088,0.346122 -0.0012,0.40884 -0.06514,0.40884 -0.04337,0 -0.04525,-0.0165 -0.04525,-0.39738 0,-1.4e-5 -2.6e-5,-1.9e-5 -2.6e-5,-3.2e-5 z m 2.862628,0.226026 c 0.0565,0 -0.0103,-0.102812 -0.0228,-0.102812 -0.0126,0 -0.0229,-0.0257 -0.0229,-0.05712 0,-0.03554 -0.013,-0.05712 -0.0343,-0.05712 -0.0188,0 -0.0343,-0.01028 -0.0343,-0.02285 0,-0.01257 -0.0103,-0.02285 -0.0229,-0.02285 -0.0126,0 -0.0228,0.0574 -0.0228,0.127562 0,0.0919 -0.008,0.124903 -0.0286,0.118044 -0.0157,-0.0052 -0.0277,-0.02666 -0.0267,-0.0476 0.001,-0.02094 0.004,-0.135749 0.006,-0.255125 0.003,-0.191651 0.009,-0.217048 0.0446,-0.217048 0.05,0 0.11917,0.11146 0.11917,0.192014 0,0.03262 0.01,0.0593 0.0214,0.0593 0.0118,0 0.0246,0.03262 0.0286,0.07249 0.004,0.03987 0.0183,0.07613 0.0319,0.08058 0.0154,0.0051 0.0209,-0.01786 0.0145,-0.06107 -0.008,-0.05316 -10e-4,-0.06916 0.0276,-0.06916 0.0252,0 0.0363,-0.01707 0.0333,-0.05141 -0.0107,-0.124716 0.005,-0.314149 0.0255,-0.314149 0.0126,0 0.0229,0.01971 0.0229,0.04379 0,0.02409 0.0129,0.04851 0.0286,0.05426 0.0228,0.0084 0.0228,0.01653 0,0.04074 -0.0178,0.01883 -0.0286,0.09691 -0.0286,0.206575 0,0.119632 -0.009,0.18003 -0.0286,0.187892 -0.0216,0.0088 -0.0202,0.01804 0.006,0.03791 0.0259,0.01988 0.0273,0.02916 0.006,0.03791 -0.0157,0.0064 -0.0285,0.03644 -0.0285,0.0668 0,0.04366 -0.012,0.05522 -0.0571,0.05522 -0.0525,0 -0.15154,-0.10211 -0.0571,-0.102812 z m -0.5369,0.01142 c 0.0263,4.4e-5 -0.0241,-0.04569 -0.0358,-0.04569 -0.0117,0 -0.0213,-0.01542 -0.0213,-0.03427 0,-0.02538 -0.0267,-0.03427 -0.10281,-0.03427 -0.0865,0 -0.10281,0.007 -0.10281,0.04435 0,0.05691 -0.0419,0.08354 -0.0594,0.03779 -0.0155,-0.04024 0.0558,-0.242068 0.0854,-0.242068 0.0109,0 0.0197,-0.0257 0.0197,-0.05712 0,-0.03142 0.0103,-0.05712 0.0229,-0.05712 0.0126,0 0.0228,-0.03158 0.0228,-0.07018 0,-0.03859 0.0145,-0.08468 0.0322,-0.102403 0.0177,-0.01773 0.0365,-0.04517 0.0418,-0.06099 0.007,-0.02052 0.0221,-0.01626 0.0532,0.01489 0.0306,0.03064 0.0352,0.04647 0.0153,0.05311 -0.0337,0.01122 -0.0385,0.09703 -0.006,0.09703 0.0126,0 0.0228,0.0466 0.0228,0.103546 0,0.05695 0.0154,0.140455 0.0343,0.185567 0.0383,0.09159 0.0457,0.213524 0.013,0.213524 -0.0117,0 -0.0622,-0.04574 -0.0358,-0.04569 z m -0.10317,-0.279877 c 8.2e-4,-0.02826 -0.009,-0.06512 -0.0197,-0.08188 -0.0154,-0.02431 -0.0223,-0.02278 -0.0339,0.0076 -0.0253,0.06589 -0.0159,0.125705 0.0197,0.125705 0.0204,0 0.0331,-0.02296 0.0339,-0.0514 z m 1.78243,0.291301 c 0.0186,0.0029 0.0103,-0.03427 0.0228,-0.03427 0.0141,0 0.0228,-0.113724 0.0228,-0.295473 0,-0.326524 -0.0123,-0.301863 0.16501,-0.331745 0.087,-0.01467 0.22339,0.03383 0.22339,0.07947 0,0.01224 -0.0617,0.02226 -0.13708,0.02226 h -0.13709 v 0.101777 c 0,0.08951 0.003,0.1023 0.08,0.116778 0.0788,0.01479 0.11238,0.05561 0.0457,0.05561 -0.0188,0 -0.0343,0.01028 -0.0343,0.02285 0,0.01257 -0.0206,0.02285 -0.0457,0.02285 -0.037,0 -0.0457,0.01523 -0.0457,0.07997 v 0.07997 h 0.12566 c 0.11113,0 0.12567,0.0031 0.12567,0.05712 0,0.05669 -0.002,0.05712 -0.20563,0.05712 -0.16755,0 -0.2332,-0.03861 -0.20562,-0.03427 z m -2.65027,-0.28559 v -0.274165 h 0.08 c 0.0438,0 0.08,-0.01028 0.08,-0.02285 0,-0.01257 0.0206,-0.02285 0.0457,-0.02285 0.0251,0 0.0457,0.01028 0.0457,0.02285 0,0.01257 0.0154,0.02285 0.0343,0.02285 0.0189,0 0.0343,0.01542 0.0343,0.03427 0,0.01885 0.0103,0.03427 0.0228,0.03427 0.0126,0 0.0228,0.03084 0.0228,0.06854 0,0.0377 -0.0103,0.06854 -0.0228,0.06854 -0.0126,0 -0.0228,0.01457 -0.0228,0.03236 0,0.0178 -0.0129,0.03698 -0.0286,0.04262 -0.0194,0.007 -0.012,0.02496 0.0228,0.05599 0.0283,0.02516 0.0514,0.05739 0.0514,0.07162 0,0.01423 0.0154,0.02588 0.0343,0.02588 0.019,0 0.0343,0.02031 0.0343,0.04569 0,0.02513 -0.008,0.04569 -0.0185,0.04569 -0.0102,0 -0.0406,-0.02056 -0.0676,-0.04569 -0.027,-0.02513 -0.0638,-0.04569 -0.0818,-0.04569 -0.018,0 -0.0387,-0.01542 -0.0459,-0.03427 -0.007,-0.01885 -0.0327,-0.03427 -0.0566,-0.03427 -0.0331,0 -0.047,0.02189 -0.0581,0.09139 -0.0114,0.07108 -0.0247,0.09139 -0.06,0.09139 -0.0428,0 -0.0509,-0.01583 -0.0454,-0.274166 z m 0.22847,-0.04569 c 0.079,0 0.0569,-0.07778 0.006,-0.136822 -0.0827,-0.09656 -0.14803,-0.03981 -0.12611,0.109522 0.0123,0.08415 0.0535,0.09354 0.11976,0.0273 z m 1.7421,0.305935 c -0.0172,-2.97e-4 -0.0286,-0.03244 -0.0286,-0.05652 0,-0.02409 -0.0103,-0.04379 -0.0228,-0.04379 -0.0126,0 -0.0229,-0.0257 -0.0229,-0.05712 0,-0.03141 0.0103,-0.05712 0.0229,-0.05712 0.0329,0 0.0282,-0.06257 -0.006,-0.07626 -0.0228,-0.0092 -0.0228,-0.01188 0,-0.01333 0.0157,-9.87e-4 0.0286,-0.02317 0.0286,-0.04929 0,-0.02612 0.0407,-0.08781 0.0905,-0.137083 0.0834,-0.08256 0.10045,-0.0896 0.21706,-0.0896 0.11131,0 0.12654,0.0055 0.12654,0.04569 0,0.0396 -0.0152,0.04569 -0.11423,0.04569 -0.0628,0 -0.11423,0.0096 -0.11423,0.02131 0,0.01172 -0.0206,0.02783 -0.0457,0.03581 -0.0251,0.008 -0.0457,0.03327 -0.0457,0.05621 0,0.02294 -0.0154,0.04763 -0.0343,0.05486 -0.0235,0.009 -0.0383,0.04584 -0.0343,0.11668 v 0.103529 h 0.11424 c 0.0593,0 0.11423,-0.0096 0.11423,-0.02131 0,-0.01172 0.0206,-0.02783 0.0457,-0.03581 0.0251,-0.008 0.0457,-0.02409 0.0457,-0.03581 0,-0.01172 -0.0206,-0.02131 -0.0457,-0.02131 -0.0296,0 -0.0457,-0.01523 -0.0457,-0.0431 0,-0.06008 0.12787,-0.07779 0.21134,-0.02927 0.0527,0.03064 0.0626,0.05138 0.0612,0.1287 -8.7e-4,0.05069 -0.009,0.111069 -0.0181,0.134165 -0.0151,0.03842 -0.0203,0.03696 -0.0609,-0.01713 -0.0443,-0.05901 -0.10209,-0.07954 -0.10209,-0.03628 0,0.01257 -0.0197,0.02285 -0.0438,0.02285 -0.0241,0 -0.0475,0.01129 -0.0521,0.02509 -0.009,0.02735 -0.19488,0.0501 -0.24105,0.02952 z"
       sodipodi:nodetypes="ccssscsscssssssccccscccsccccccccssssssssssssssssssssssssssscssscssssscsssscscssssccsscsccsccssccsssscccsssccccscccssssscssccsssscccccssscsscccscssssccscssssscscssscccssccscccccsssssccsssccsccsssssscsscssscscssscsccsssscssssscssssssccsssccsssssssscscssccscssscssscssccscsccsssssssccscssccccccscccccssccscccssssscccccssscccsssccssssssscssssssccsssssscsssscssssssscscsssssssccssssssssssscscsssssccsscsccssccccscssscssssssscsccsscscsccsscssssscssssssssssssscssscscccscssssscscsssscscccsscccscccccsccssscssssssscccssscccscssscscccssssssssscssssccscsscssssccsssssscsscscsssscsssssccssssssssssscsssscscscscscscssssssccscsssscscccsscssssccsssccs" />
  </g>
</svg>
