<?xml version="1.0" encoding="UTF-8" standalone="no"?>
<!-- Created with Inkscape (http://www.inkscape.org/) -->

<svg
   width="6.8143244mm"
   height="4.7109337mm"
   viewBox="0 0 6.8143244 4.7109337"
   version="1.1"
   id="svg1225"
   inkscape:version="1.1 (c68e22c387, 2021-05-23)"
   sodipodi:docname="dawn_button_bg_latch.svg"
   xmlns:inkscape="http://www.inkscape.org/namespaces/inkscape"
   xmlns:sodipodi="http://sodipodi.sourceforge.net/DTD/sodipodi-0.dtd"
   xmlns="http://www.w3.org/2000/svg"
   xmlns:svg="http://www.w3.org/2000/svg">
  <sodipodi:namedview
     id="namedview1227"
     pagecolor="#505050"
     bordercolor="#eeeeee"
     borderopacity="1"
     inkscape:pageshadow="0"
     inkscape:pageopacity="0"
     inkscape:pagecheckerboard="0"
     inkscape:document-units="mm"
     showgrid="false"
     fit-margin-top="0"
     fit-margin-left="0"
     fit-margin-right="0"
     fit-margin-bottom="0"
     inkscape:snap-global="true"
     inkscape:zoom="22.627417"
     inkscape:cx="10.230951"
     inkscape:cy="10.893864"
     inkscape:window-width="1634"
     inkscape:window-height="1003"
     inkscape:window-x="34"
     inkscape:window-y="317"
     inkscape:window-maximized="0"
     inkscape:current-layer="layer1"
     inkscape:snap-object-midpoints="true"
     inkscape:snap-center="true"
     inkscape:snap-text-baseline="true"
     inkscape:snap-bbox="true"
     inkscape:snap-bbox-midpoints="true"
     inkscape:snap-page="true" />
  <defs
     id="defs1222" />
  <g
     inkscape:label="Layer 1"
     inkscape:groupmode="layer"
     id="layer1"
     transform="translate(-98.748215,-82.050911)"
     style="display:inline">
    <path
       style="display:inline;fill:#872a39;fill-opacity:1;stroke:none;stroke-width:0.0434716;stroke-linecap:square;paint-order:stroke fill markers;stop-color:#000000"
       d="m 98.748215,82.050911 v 4.710824 h 6.841445 v -4.710824 z"
       id="rect12144" />
    <path
       id="path25129"
       style="display:inline;fill:#000000;fill-opacity:1;stroke-width:0.0247599"
       d="m 98.987192,86.207809 c 0,-0.05148 0.168427,-0.09358 0.37431,-0.09358 0.205884,0 0.374346,-0.03756 0.374346,-0.08344 0,-0.04589 0.09557,-0.107429 0.212391,-0.13675 0.116861,-0.02932 0.304601,-0.139166 0.417211,-0.2441 0.11262,-0.104933 0.24108,-0.190785 0.2854,-0.190785 0.0836,0 0.48869,-0.430895 0.48869,-0.519875 0,-0.0278 0.10529,-0.148114 0.23397,-0.267364 0.12867,-0.11925 0.23393,-0.243573 0.23393,-0.27627 0,-0.03271 -0.29477,-0.05947 -0.65507,-0.05947 -0.36027,0 -0.65504,-0.04021 -0.65504,-0.08935 0,-0.04913 -0.14742,-0.116991 -0.327551,-0.150786 -0.650401,-0.122015 -0.302901,-0.201438 0.959211,-0.219223 0.7095,-0.01005 1.30073,-0.05797 1.31792,-0.106924 0.0173,-0.04883 0.11382,-0.08878 0.21483,-0.08878 0.10098,0 0.28889,-0.10528 0.41757,-0.233952 0.12867,-0.12868 0.28588,-0.233958 0.3494,-0.233958 0.0635,0 0.17614,-0.08424 0.25035,-0.187161 0.0742,-0.102939 0.20393,-0.187161 0.28829,-0.187161 0.0844,0 0.23245,-0.105278 0.32907,-0.23395 0.15184,-0.202157 0.249,-0.233952 0.71499,-0.233952 0.465,0 0.53927,0.02418 0.53927,0.175572 0,0.145201 -0.0888,0.182938 -0.51342,0.218149 -0.37487,0.03108 -0.56091,0.09733 -0.68945,0.245541 -0.0968,0.11163 -0.20567,0.202962 -0.24192,0.202962 -0.0362,0 -0.12457,0.05263 -0.19633,0.116978 -0.30966,0.277701 -0.41552,0.350927 -0.5073,0.350927 -0.0536,0 -0.0975,0.03773 -0.0975,0.08384 0,0.08454 1.21057,0.202271 1.73124,0.168386 0.22665,-0.01476 0.28649,0.02228 0.31065,0.192283 0.0301,0.210439 0.0289,0.198871 -1.39411,0.210556 h -1.42399 l -0.55628,0.561481 c -0.30594,0.308814 -0.60025,0.561486 -0.65394,0.561486 -0.0537,0 -0.19524,0.105275 -0.3145,0.23395 -0.11926,0.128675 -0.282,0.233952 -0.36165,0.233952 -0.0797,0 -0.14483,0.0421 -0.14483,0.09358 0,0.05148 -0.0632,0.09357 -0.14038,0.09357 -0.0772,0 -0.14038,0.04211 -0.14038,0.09358 0,0.05147 -0.2316,0.09358 -0.514694,0.09358 -0.283094,2e-6 -0.51469,-0.04211 -0.51469,-0.09358 z m 4.585448,-0.655063 c 0,-0.05148 -0.1895,-0.09358 -0.4211,-0.09358 -0.30095,0 -0.42114,-0.03784 -0.42114,-0.132575 0,-0.17473 0.16189,-0.225581 0.56148,-0.176374 0.71934,0.08857 0.75885,0.107988 0.6323,0.310661 -0.12086,0.193535 -0.35154,0.253818 -0.35154,0.09187 z m -1.54785,-2.71992 c -0.0339,-0.0548 -0.1732,-0.09246 -0.30965,-0.08367 -0.58271,0.03757 -1.05181,-0.0081 -0.9967,-0.09741 0.062,-0.100269 1.33843,-0.13071 1.58081,-0.0377 0.12496,0.04795 0.12698,0.07451 0.0142,0.187161 -0.15742,0.157435 -0.20761,0.162931 -0.28878,0.03162 z" />
  </g>
</svg>
