<?xml version="1.0" encoding="UTF-8" standalone="no"?>
<!-- Created with Inkscape (http://www.inkscape.org/) -->

<svg
   width="6.8143244mm"
   height="4.7109337mm"
   viewBox="0 0 6.8143244 4.7109337"
   version="1.1"
   id="svg1225"
   inkscape:version="1.1 (c68e22c387, 2021-05-23)"
   sodipodi:docname="dawn_button_bg_latch.svg"
   xmlns:inkscape="http://www.inkscape.org/namespaces/inkscape"
   xmlns:sodipodi="http://sodipodi.sourceforge.net/DTD/sodipodi-0.dtd"
   xmlns="http://www.w3.org/2000/svg"
   xmlns:svg="http://www.w3.org/2000/svg">
  <sodipodi:namedview
     id="namedview1227"
     pagecolor="#505050"
     bordercolor="#eeeeee"
     borderopacity="1"
     inkscape:pageshadow="0"
     inkscape:pageopacity="0"
     inkscape:pagecheckerboard="0"
     inkscape:document-units="mm"
     showgrid="false"
     fit-margin-top="0"
     fit-margin-left="0"
     fit-margin-right="0"
     fit-margin-bottom="0"
     inkscape:snap-global="true"
     inkscape:zoom="30.357499"
     inkscape:cx="10.145763"
     inkscape:cy="10.689286"
     inkscape:window-width="2560"
     inkscape:window-height="1417"
     inkscape:window-x="3832"
     inkscape:window-y="-8"
     inkscape:window-maximized="1"
     inkscape:current-layer="layer1"
     inkscape:snap-object-midpoints="true"
     inkscape:snap-center="true"
     inkscape:snap-text-baseline="true"
     inkscape:snap-bbox="true"
     inkscape:snap-bbox-midpoints="true" />
  <defs
     id="defs1222" />
  <g
     inkscape:label="Layer 1"
     inkscape:groupmode="layer"
     id="layer1"
     transform="translate(-98.748215,-82.050911)">
    <path
       id="rect12144"
       style="display:inline;fill:#872a39;fill-opacity:1;stroke:none;stroke-width:0.163979;stroke-linecap:square;paint-order:stroke fill markers;stop-color:#000000"
       d="M 0,0 V 17.804688 H 25.755859 V 0 Z m 23.314453,2.9550781 c 0.5051,-0.01415 1.042781,0.3165649 0.925781,0.9101563 0.108473,2.3403023 0.03281,4.6870187 -0.06055,7.0273436 -0.02646,0.972805 -0.08548,1.946945 -0.677735,2.742188 -0.108472,0.665949 -0.64215,1.869965 -0.976562,0.492187 -0.258898,-0.886979 -0.03837,-1.852711 -0.355469,-2.714844 -0.93052,-1.4929206 -3.699938,-0.731837 -3.771484,1.027344 0.174236,0.995104 -0.491526,1.790422 -1.521485,1.427735 -0.697738,-0.600095 -0.254748,-1.78038 -0.373047,-2.621094 -0.100157,-0.739208 0.212579,-1.299484 0.763672,-1.6347659 0.331087,-1.7041474 -0.02124,-3.4681075 0.265625,-5.1757812 0.310677,-0.6659603 1.924055,-0.5203219 1.724609,0.4101562 0.309166,0.9287396 -0.995361,1.2227557 -0.521484,2.1152344 0.965405,0.3274583 -0.0079,2.0026317 1.181641,2.0058594 0.809083,-0.048416 2.252526,0.3673244 2.353515,-0.828125 0.215433,-1.5801903 0.02198,-3.1988663 0.316407,-4.7675781 0.131385,-0.2743427 0.423502,-0.4075255 0.726562,-0.4160157 z M 2.8066406,3.2089844 C 3.6872827,3.2157811 3.5645879,4.717234 3.6289062,5.40625 3.7148149,6.0534525 5.0526216,6.0203652 4.2890625,6.859375 3.7311929,7.1512301 3.3450174,7.5696882 4.1035156,7.9199219 4.6630444,8.6657436 4.3519409,9.6966012 3.7207031,10.167969 c -0.1049197,0.846194 -0.3080749,1.844402 0.1035157,2.617187 0.7948988,0.370394 1.7230936,0.085 2.5703124,0.236328 0.8578394,-0.180472 1.6841091,1.375585 0.8769532,1.675782 -1.4986583,0.148535 -3.0282148,0.200653 -4.5234375,0.0039 C 2.5783839,14.662281 2.3586138,14.569151 2.3710938,14.357422 2.1637489,13.837703 1.3756711,13.771216 1.5195312,13 1.419147,11.777028 1.4153795,10.506942 1.7832031,9.3261719 2.3045247,9.0225246 2.6896846,8.1032053 1.7675781,8.0214844 1.2935384,7.1032293 1.4893505,5.9748493 1.6132812,4.984375 1.6359584,4.2338742 2.4418973,3.9807832 2.5,3.2578125 2.6139375,3.2239668 2.7155397,3.2082813 2.8066406,3.2089844 Z M 13.003906,4.1132812 c 0.08778,0.00163 0.185092,0.027364 0.292969,0.082031 0.558765,0.8899502 -1.170922,0.6975401 -0.792969,1.703125 0.102425,1.0975748 -1.326334,1.4576333 -1.052734,2.6230469 -0.0012,0.9934337 -0.118092,2.0122786 0.09961,2.9882816 0.475427,0.80355 1.663593,0.208175 2.3125,0.822265 0.809499,0.355087 1.024248,1.748152 -0.15625,1.601563 -0.275905,0.491539 -0.575366,1.062699 -1.314453,0.882812 -0.298961,-0.01436 -0.804046,-0.05715 -0.810547,-0.458984 h 0.002 C 11.372331,13.642214 10.1867,14.088075 10.21875,13.111328 9.1366335,12.892645 9.5585327,11.495618 9.4355469,10.683594 9.4544445,9.6017304 9.3639525,8.5011922 9.5820312,7.4355469 9.9494013,7.0644729 10.487112,6.863236 10.433594,6.1835938 c 0.401688,-0.3231119 0.924267,-0.4241292 0.980468,-1.0566407 0.781796,0.095376 0.97537,-1.0251023 1.589844,-1.0136719 z"
       transform="matrix(0.26458333,0,0,0.26458333,98.748215,82.050911)" />
  </g>
</svg>
