<?xml version="1.0" encoding="UTF-8" standalone="no"?>
<!-- Created with Inkscape (http://www.inkscape.org/) -->

<svg
   width="6.8143244mm"
   height="4.7109337mm"
   viewBox="0 0 6.8143244 4.7109337"
   version="1.1"
   id="svg1225"
   inkscape:version="1.1 (c68e22c387, 2021-05-23)"
   sodipodi:docname="dawn_button_bg_latch.svg"
   xmlns:inkscape="http://www.inkscape.org/namespaces/inkscape"
   xmlns:sodipodi="http://sodipodi.sourceforge.net/DTD/sodipodi-0.dtd"
   xmlns="http://www.w3.org/2000/svg"
   xmlns:svg="http://www.w3.org/2000/svg">
  <sodipodi:namedview
     id="namedview1227"
     pagecolor="#505050"
     bordercolor="#eeeeee"
     borderopacity="1"
     inkscape:pageshadow="0"
     inkscape:pageopacity="0"
     inkscape:pagecheckerboard="0"
     inkscape:document-units="mm"
     showgrid="false"
     fit-margin-top="0"
     fit-margin-left="0"
     fit-margin-right="0"
     fit-margin-bottom="0"
     inkscape:snap-global="true"
     inkscape:zoom="16"
     inkscape:cx="9.28125"
     inkscape:cy="16.34375"
     inkscape:window-width="1634"
     inkscape:window-height="1003"
     inkscape:window-x="34"
     inkscape:window-y="317"
     inkscape:window-maximized="0"
     inkscape:current-layer="layer1"
     inkscape:snap-object-midpoints="true"
     inkscape:snap-center="true"
     inkscape:snap-text-baseline="true"
     inkscape:snap-bbox="true"
     inkscape:snap-bbox-midpoints="true"
     inkscape:snap-page="true" />
  <defs
     id="defs1222">
    <linearGradient
       id="linearGradient4512"
       inkscape:swatch="solid"
       gradientTransform="matrix(0.0061868,0,0,0.0061868,70.941577,35.115452)">
      <stop
         style="stop-color:#872a39;stop-opacity:1;"
         offset="0"
         id="stop4510" />
    </linearGradient>
  </defs>
  <g
     inkscape:label="Layer 1"
     inkscape:groupmode="layer"
     id="layer1"
     transform="translate(-98.748215,-82.050911)"
     style="display:inline">
    <path
       style="display:inline;fill:#5b1128;fill-opacity:0.996078;fill-rule:nonzero;stroke:none;stroke-width:0.0150797"
       d="m 104.16441,80.250963 c -0.0221,0.09404 -0.0639,0.17953 -0.0929,0.18998 -0.029,0.01045 -0.0528,0.05167 -0.0528,0.0916 0,0.09453 -0.5643,0.658826 -0.65884,0.658826 -0.0399,0 -0.0811,0.01924 -0.0916,0.04275 -0.0288,0.06489 -0.37667,0.29922 -0.44414,0.29922 -0.0326,0 -0.0593,0.02565 -0.0593,0.057 0,0.03135 -0.0385,0.05699 -0.0855,0.05699 -0.047,0 -0.0855,0.02444 -0.0855,0.05432 0,0.02987 -0.0882,0.07866 -0.19591,0.108408 -0.22082,0.06097 -0.27196,0.09797 -0.66352,0.480026 -0.15348,0.149757 -0.29498,0.3357 -0.31443,0.41321 -0.0194,0.07751 -0.0557,0.140922 -0.0806,0.140922 -0.0249,0 -0.0715,0.07543 -0.10368,0.167612 -0.0765,0.219501 -0.60632,0.744298 -0.7514,0.744298 -0.0623,0 -0.11322,0.02216 -0.11322,0.04925 0,0.02708 -0.11016,0.06435 -0.24477,0.0828 -0.134608,0.01846 -0.320558,0.07308 -0.413198,0.121387 -0.0927,0.04831 -0.21335,0.08799 -0.26819,0.08819 -0.0549,1.73e-4 -0.0997,0.02301 -0.0997,0.0507 0,0.02769 -0.0449,0.0668 -0.0998,0.08691 -0.19392,0.07109 -0.41321,0.211621 -0.41321,0.264812 0,0.02964 -0.0331,0.05389 -0.0735,0.05389 -0.0404,0 -0.337088,0.264388 -0.659218,0.587527 -0.32215,0.323142 -0.66737,0.626754 -0.76715,0.674696 -0.28505,0.136951 -0.75155,0.276626 -0.92388,0.276626 -0.0864,0 -0.39763,0.115413 -0.69151,0.256474 -0.29387,0.141062 -0.54448,0.256476 -0.55689,0.256476 -0.0125,0 0.007,-0.07694 0.042,-0.170984 0.0355,-0.09404 0.0837,-0.170983 0.10704,-0.170983 0.0234,0 0.12677,-0.07367 0.22974,-0.163717 0.10297,-0.09004 0.27058,-0.181847 0.37245,-0.204008 0.10189,-0.02216 0.18523,-0.06073 0.18523,-0.0857 0,-0.02497 0.14618,-0.05753 0.32484,-0.07235 0.17866,-0.01482 0.33469,-0.05646 0.34673,-0.09255 0.0121,-0.03608 0.0864,-0.06561 0.16524,-0.06561 0.19564,0 0.53105,-0.166091 0.53105,-0.262968 0,-0.04345 0.0385,-0.079 0.0855,-0.079 0.047,0 0.0855,-0.02443 0.0855,-0.05428 0,-0.11498 1.004098,-1.028614 1.130488,-1.028614 0.0313,0 0.0654,-0.02239 0.0759,-0.04975 0.027,-0.07078 0.67223,-0.406138 0.7822,-0.406558 0.0504,-1.7e-4 0.16518,-0.03866 0.25496,-0.08549 0.0898,-0.04683 0.217498,-0.08514 0.283808,-0.08514 0.23734,0 0.62618,-0.334106 0.80682,-0.693275 0.094,-0.186984 0.19631,-0.389612 0.22724,-0.450287 0.031,-0.06067 0.0777,-0.110314 0.10381,-0.110314 0.0648,0 0.18062,-0.122264 0.22372,-0.236197 0.053,-0.140113 0.49597,-0.449005 0.8416,-0.586892 0.047,-0.01876 0.18807,-0.0971 0.31346,-0.174086 0.12539,-0.07699 0.27287,-0.156412 0.32771,-0.176493 0.0549,-0.02008 0.0998,-0.05639 0.0998,-0.08068 0,-0.02429 0.0641,-0.06026 0.14247,-0.07993 0.0784,-0.01967 0.14251,-0.06092 0.14251,-0.09167 0,-0.03075 0.0463,-0.05591 0.10279,-0.05591 0.0984,0 0.46714,-0.330162 0.46714,-0.418306 0,-0.02333 0.0546,-0.09905 0.12139,-0.168269 l 0.1214,-0.125855 z m 2.48717,0.469589 c 0.0582,0.01325 0.0837,0.05559 0.0642,0.106433 -0.0447,0.116443 -1.58347,1.675257 -1.65374,1.675257 -0.0312,0 -0.10314,0.05129 -0.15988,0.113989 -0.0567,0.06269 -0.14895,0.113988 -0.20494,0.113988 -0.056,0 -0.11522,0.02173 -0.13164,0.04829 -0.0164,0.02656 -0.30397,0.06382 -0.639,0.08279 -0.33503,0.01898 -0.636,0.06136 -0.66885,0.09419 -0.0328,0.03283 -0.11025,0.0597 -0.17205,0.0597 -0.12124,0 -0.5775,0.442345 -0.66561,0.645286 -0.22695,0.522831 -0.94005,1.119096 -1.34063,1.120985 -0.14592,6.46e-4 -0.64915,0.169025 -0.75485,0.252508 -0.24283,0.191781 -0.637398,0.61937 -0.637398,0.690723 0,0.04577 -0.0192,0.0834 -0.0428,0.08361 -0.0235,2.15e-4 -0.10687,0.09639 -0.18524,0.21373 -0.32432,0.485596 -0.56543,0.754848 -0.67557,0.754426 -0.0516,-2e-4 -0.13754,-0.07714 -0.19094,-0.170983 -0.106438,-0.187066 -0.271328,-0.2215 -0.407708,-0.08513 -0.047,0.04702 -0.10984,0.08549 -0.13959,0.08549 -0.0298,0 -0.086,0.03847 -0.12502,0.08549 -0.039,0.04702 -0.105,0.08549 -0.14661,0.08549 -0.0416,0 -0.18595,0.07053 -0.32075,0.156734 -0.40648,0.259959 -0.46557,0.294147 -0.65828,0.380954 -0.12166,0.0548 -0.18523,0.123558 -0.18523,0.200331 0,0.06591 -0.0373,0.116897 -0.0855,0.116897 -0.10848,0 -0.10726,-0.02584 0.0103,-0.215735 0.14441,-0.233332 0.42998,-0.525192 0.51386,-0.525192 0.0409,0 0.0743,-0.02565 0.0743,-0.057 0,-0.03135 0.0345,-0.05699 0.0767,-0.05699 0.0422,0 0.12307,-0.0513 0.17981,-0.11399 0.0567,-0.06269 0.13767,-0.113987 0.17982,-0.113987 0.0422,0 0.0767,-0.02266 0.0767,-0.05035 0,-0.02769 0.0449,-0.06657 0.0997,-0.0864 0.13474,-0.04871 0.35158,-0.177784 0.42941,-0.25561 0.0929,-0.09293 0.470838,-0.07799 0.553728,0.02189 0.11042,0.133041 0.18823,0.100703 0.33659,-0.139905 0.0754,-0.122283 0.19723,-0.287183 0.27073,-0.366444 0.0735,-0.07926 0.13374,-0.164465 0.1339,-0.189343 1.7e-4,-0.02488 0.0899,-0.14284 0.19947,-0.262135 0.10958,-0.119295 0.19921,-0.238129 0.19921,-0.264075 0,-0.02595 0.0449,-0.06352 0.0997,-0.0835 0.0549,-0.01997 0.205368,-0.09713 0.334468,-0.171455 0.1291,-0.07432 0.32062,-0.153995 0.42559,-0.177051 0.10497,-0.02306 0.23017,-0.06291 0.27823,-0.08855 0.0481,-0.02565 0.17933,-0.06123 0.29175,-0.07908 0.18069,-0.02868 0.56503,-0.294227 0.56503,-0.390381 0,-0.06732 0.59787,-0.922234 0.735,-1.05101 0.0751,-0.07053 0.18411,-0.128237 0.24223,-0.128237 0.0581,0 0.10566,-0.02096 0.10566,-0.04657 0,-0.07467 0.79636,-0.239928 1.15239,-0.239129 0.32782,6.47e-4 0.69693,-0.137419 0.84552,-0.31647 0.0373,-0.04497 0.0922,-0.08176 0.12194,-0.08176 0.0536,0 0.21692,-0.140668 0.21692,-0.186807 0,-0.01318 0.22319,-0.260679 0.49595,-0.549996 0.5043,-0.534898 0.70997,-0.685348 0.88301,-0.645926 z m 0.49019,1.527129 c 0.12249,0.06382 0.11458,0.07 -0.12382,0.09687 -0.21035,0.02371 -0.305,0.07826 -0.54402,0.313558 -0.15917,0.156669 -0.28938,0.313928 -0.28938,0.349465 0,0.03553 -0.0385,0.06461 -0.0855,0.06461 -0.047,0 -0.0855,0.02673 -0.0855,0.0594 0,0.06777 -0.0655,0.154119 -0.32771,0.432022 -0.10189,0.107971 -0.18523,0.215104 -0.18523,0.238071 0,0.02297 -0.12671,0.124702 -0.28157,0.226077 -0.25332,0.16585 -0.32387,0.184319 -0.70388,0.184319 -0.37818,0 -0.44683,0.01775 -0.65679,0.169852 -0.12897,0.09342 -0.27967,0.240891 -0.3349,0.327717 -0.0552,0.08683 -0.13311,0.178377 -0.17304,0.203444 -0.0399,0.02507 -0.0726,0.08003 -0.0726,0.122141 0,0.04211 -0.0385,0.09132 -0.0855,0.109367 -0.047,0.01805 -0.0855,0.06035 -0.0855,0.09402 0,0.109459 -0.46717,0.69689 -0.57707,0.72563 -0.0588,0.01538 -0.10687,0.04692 -0.10687,0.07011 0,0.02319 -0.18484,0.05934 -0.41077,0.08034 -0.22592,0.021 -0.4247,0.0592 -0.44172,0.0849 -0.017,0.0257 -0.10146,0.06398 -0.18767,0.08508 -0.0862,0.02109 -0.15673,0.06352 -0.15673,0.09427 0,0.03075 -0.032,0.05639 -0.0712,0.05698 -0.0392,6.47e-4 -0.27364,0.204745 -0.52104,0.453675 -0.40603,0.408576 -0.48086,0.459261 -0.769408,0.521071 -0.30691,0.06574 -1.32394,0.540432 -1.36577,0.63746 -0.0112,0.02581 -0.0752,0.07201 -0.142478,0.102682 -0.1722,0.07853 -0.65297,0.377719 -0.72074,0.44851 -0.0621,0.06482 -0.41284,0.229293 -0.48903,0.229293 -0.0445,0 -0.0809,-0.0365 -0.0809,-0.08112 0,-0.116169 0.26814,-0.418806 0.41133,-0.464254 0.0668,-0.02117 0.17463,-0.08945 0.23973,-0.151712 0.0651,-0.06226 0.18889,-0.138573 0.2751,-0.169585 0.0862,-0.03102 0.15674,-0.07953 0.15674,-0.10781 0,-0.02828 0.0346,-0.05142 0.0769,-0.05142 0.0423,0 0.18316,-0.07694 0.312968,-0.170983 0.12983,-0.09404 0.27159,-0.170983 0.31504,-0.170983 0.0434,0 0.11094,-0.03847 0.14997,-0.08549 0.039,-0.04702 0.0999,-0.08565 0.13521,-0.08584 0.0353,-1.94e-4 0.14006,-0.03988 0.23271,-0.08819 0.0927,-0.04831 0.27859,-0.102932 0.41321,-0.121385 0.13461,-0.01846 0.244768,-0.05571 0.244768,-0.08279 0,-0.02709 0.0385,-0.04925 0.0855,-0.04925 0.047,0 0.0855,-0.03847 0.0855,-0.08549 0,-0.04702 0.0385,-0.08549 0.0855,-0.08549 0.047,0 0.0855,-0.02479 0.0855,-0.05509 0,-0.11498 0.66222,-0.685833 0.7956,-0.685833 0.0326,0 0.0593,-0.02565 0.0593,-0.057 0,-0.03135 0.0401,-0.05699 0.0892,-0.05699 0.0491,0 0.14525,-0.03182 0.21373,-0.07071 0.13069,-0.07424 0.15398,-0.07828 0.52897,-0.09183 0.30222,-0.01092 0.49236,-0.171209 0.68613,-0.578381 0.0224,-0.04702 0.0747,-0.106002 0.11621,-0.13107 0.0416,-0.02507 0.0755,-0.07326 0.0755,-0.107081 0,-0.05886 0.2136,-0.321261 0.58166,-0.71462 0.0944,-0.100841 0.22651,-0.200476 0.29365,-0.221412 0.0671,-0.02094 0.13817,-0.06308 0.15781,-0.09366 0.0196,-0.03058 0.23766,-0.05354 0.48447,-0.05104 0.36021,0.0037 0.47401,-0.01659 0.57696,-0.102596 0.0705,-0.05893 0.12823,-0.1351 0.12823,-0.169258 0,-0.03416 0.0385,-0.06211 0.0855,-0.06211 0.047,0 0.0855,-0.03847 0.0855,-0.08549 0,-0.04702 0.0385,-0.08549 0.0855,-0.08549 0.047,0 0.0855,-0.02347 0.0855,-0.05215 0,-0.0918 0.7285,-0.884105 0.97418,-1.059504 0.1127,-0.08047 0.51089,-0.07916 0.66698,0.0022 z m 0.58162,0.960813 c 0,0.05042 -0.0347,0.09167 -0.0771,0.09167 -0.0835,0 -0.43751,0.436222 -0.83253,1.0259 -0.40469,0.604079 -0.58881,0.766834 -0.86751,0.766834 -0.13704,0 -0.24742,-0.0296 -0.26086,-0.06995 -0.0491,-0.147178 -0.28913,-0.06739 -0.51839,0.172278 -0.41878,0.437819 -0.69231,0.76685 -0.69231,0.832794 0,0.03568 -0.0244,0.06487 -0.0542,0.06487 -0.0298,0 -0.16443,0.07184 -0.29921,0.159644 -0.23926,0.15585 -0.44795,0.22811 -1.05727,0.366077 -0.16457,0.03726 -0.2992,0.08607 -0.2992,0.108454 0,0.02238 -0.0769,0.0576 -0.171,0.07826 -0.094,0.02066 -0.17097,0.06116 -0.17097,0.09002 0,0.02886 -0.0377,0.05247 -0.0838,0.05247 -0.0461,0 -0.20639,0.114978 -0.35621,0.255509 -0.14982,0.14053 -0.29162,0.255944 -0.31514,0.256476 -0.0235,4.31e-4 -0.0427,0.03944 -0.0427,0.08646 0,0.04702 -0.0237,0.08549 -0.0527,0.08549 -0.029,0 -0.21046,0.153884 -0.40328,0.341967 -0.19281,0.18808 -0.3629,0.341966 -0.37796,0.341966 -0.0151,0 -0.0965,0.07164 -0.18094,0.159198 -0.0844,0.08756 -0.28176,0.259809 -0.43849,0.382779 -0.15674,0.12297 -0.297788,0.237276 -0.313468,0.254011 -0.0756,0.08072 -0.79293,0.39389 -0.9689,0.42299 l -0.19947,0.03299 0.14826,-0.127283 c 0.0816,-0.07 0.20579,-0.165755 0.27605,-0.212775 0.0703,-0.04702 0.18306,-0.133665 0.25068,-0.192544 0.0676,-0.05888 0.24475,-0.182904 0.39364,-0.275613 0.1489,-0.09271 0.270728,-0.192005 0.270728,-0.220664 0,-0.02866 0.0256,-0.05211 0.057,-0.05211 0.0739,0 0.28499,-0.211054 0.28499,-0.284972 0,-0.03135 0.032,-0.05759 0.0712,-0.05832 0.0392,-6.46e-4 0.35799,-0.276436 0.70847,-0.612689 0.73451,-0.704718 0.83461,-0.788746 1.08686,-0.912251 0.10187,-0.04988 0.18523,-0.111592 0.18523,-0.137133 0,-0.02554 0.0649,-0.04644 0.14426,-0.04644 0.0794,0 0.1593,-0.03912 0.17765,-0.08695 0.0257,-0.06705 0.0514,-0.07197 0.11219,-0.02152 0.0574,0.04766 0.0788,0.04805 0.0788,0.0015 0,-0.03519 0.0449,-0.0636 0.0997,-0.06315 0.1372,0.0011 0.89323,-0.245764 0.91666,-0.29936 0.0103,-0.02389 0.0547,-0.04343 0.0984,-0.04343 0.0437,0 0.12492,-0.07053 0.1805,-0.156733 0.0556,-0.08621 0.17158,-0.226403 0.25779,-0.311551 0.0862,-0.08515 0.15673,-0.176293 0.15673,-0.202547 0,-0.05916 0.29731,-0.336709 0.59113,-0.551847 0.20757,-0.151984 0.22955,-0.156471 0.37047,-0.07563 0.33279,0.190915 0.45109,0.179737 0.69397,-0.06556 0.12388,-0.125137 0.22526,-0.242431 0.22526,-0.260651 0,-0.03442 0.006,-0.04253 0.28466,-0.370282 0.0932,-0.109714 0.16988,-0.215623 0.17037,-0.235353 0,-0.01973 0.10284,-0.140901 0.22741,-0.269267 0.25096,-0.2586 0.51443,-0.368195 0.51443,-0.213988 z"
       id="path986"
       inkscape:linked-fill="path1765" />
    <path
       d="m 98.56155,86.800575 c -0.08924,-0.05649 -0.101323,-0.379611 -0.08712,-2.325704 0.0091,-1.243081 0.0424,-2.277737 0.07409,-2.299237 0.03169,-0.02151 0.07754,-0.09306 0.101872,-0.159007 0.0365,-0.099 0.09863,-0.112447 0.356237,-0.07715 0.251075,0.03442 0.320469,0.02072 0.355322,-0.07005 0.03916,-0.102101 0.343757,-0.112813 3.205999,-0.112813 2.89827,0 3.16645,0.0098 3.20725,0.116054 0.0246,0.06383 0.0405,1.167958 0.0356,2.4536 -0.008,2.028886 -0.0232,2.351942 -0.11792,2.446531 -0.15633,0.156347 -2.92013,0.42075 -3.0249,0.260739 -0.0586,-0.0894 -0.0769,-0.08705 -0.13871,0.01789 -0.0903,0.153172 -0.47884,0.167185 -0.47884,0.01725 0,-0.140108 -0.34078,-0.136295 -0.44409,0.0049 -0.0835,0.114186 -0.4539,0.07582 -0.4539,-0.04705 0,-0.09526 -0.46683,-0.07269 -0.51231,0.02474 -0.0322,0.06905 -0.0483,0.06905 -0.0806,0 -0.0601,-0.128765 -0.694122,-0.114052 -0.744509,0.01726 -0.03068,0.07993 -0.16252,0.103372 -0.577263,0.102558 -0.295641,-5.3e-4 -0.619234,-0.334559 -0.6762,-0.370659 z m 0.873296,-0.519478 c 0.08837,-0.08836 0.479411,-0.103613 2.656674,-0.103613 2.20566,0 2.55845,0.0141 2.59281,0.103613 0.027,0.07035 0.13719,0.103621 0.34321,0.103621 h 0.30345 l 0.008,-0.328109 c 0.004,-0.180467 0.012,-1.067472 0.0172,-1.97113 0.008,-1.377508 0.0263,-1.653784 0.1132,-1.709637 0.26569,-0.170821 -0.18573,-0.202679 -2.8861,-0.203708 -2.41025,-0.0011 -2.78779,0.01281 -2.822225,0.102555 -0.02193,0.05698 -0.06754,0.103616 -0.101454,0.103616 -0.03394,0 -0.06169,-0.04662 -0.06169,-0.103616 0,-0.05755 -0.06141,-0.103614 -0.138161,-0.103614 -0.07673,0 -0.138135,0.04603 -0.138135,0.103614 0,0.05698 -0.04663,0.103616 -0.10362,0.103616 -0.08944,0 -0.103621,0.245602 -0.103621,1.795976 0,1.550376 -0.0141,1.795976 -0.103594,1.795976 -0.06908,0 -0.103621,0.06906 -0.103621,0.207227 0,0.185274 0.02245,0.207234 0.21215,0.207234 0.1167,0 0.258803,-0.04665 0.315769,-0.103621 z"
       style="display:inline;fill:url(#linearGradient4512);fill-opacity:1;stroke-width:0.0182764"
       id="path1327"
       sodipodi:nodetypes="ccccccscccccscscccccccscsccccccssssssssscc" />
    <path
       id="path25129"
       style="display:inline;fill:#000000;fill-opacity:1;stroke-width:0.0247599"
       d="m 98.987192,86.207809 c 0,-0.05148 0.168427,-0.09358 0.37431,-0.09358 0.205884,0 0.374346,-0.03756 0.374346,-0.08344 0,-0.04589 0.09557,-0.107429 0.212391,-0.13675 0.116861,-0.02932 0.304601,-0.139166 0.417211,-0.2441 0.11262,-0.104933 0.24108,-0.190785 0.2854,-0.190785 0.0836,0 0.48869,-0.430895 0.48869,-0.519875 0,-0.0278 0.10529,-0.148114 0.23397,-0.267364 0.12867,-0.11925 0.23393,-0.243573 0.23393,-0.27627 0,-0.03271 -0.29477,-0.05947 -0.65507,-0.05947 -0.36027,0 -0.65504,-0.04021 -0.65504,-0.08935 0,-0.04913 -0.14742,-0.116991 -0.327551,-0.150786 -0.650401,-0.122015 -0.302901,-0.201438 0.959211,-0.219223 0.7095,-0.01005 1.30073,-0.05797 1.31792,-0.106924 0.0173,-0.04883 0.11382,-0.08878 0.21483,-0.08878 0.10098,0 0.28889,-0.10528 0.41757,-0.233952 0.12867,-0.12868 0.28588,-0.233958 0.3494,-0.233958 0.0635,0 0.17614,-0.08424 0.25035,-0.187161 0.0742,-0.102939 0.20393,-0.187161 0.28829,-0.187161 0.0844,0 0.23245,-0.105278 0.32907,-0.23395 0.15184,-0.202157 0.249,-0.233952 0.71499,-0.233952 0.465,0 0.53927,0.02418 0.53927,0.175572 0,0.145201 -0.0888,0.182938 -0.51342,0.218149 -0.37487,0.03108 -0.56091,0.09733 -0.68945,0.245541 -0.0968,0.11163 -0.20567,0.202962 -0.24192,0.202962 -0.0362,0 -0.12457,0.05263 -0.19633,0.116978 -0.30966,0.277701 -0.41552,0.350927 -0.5073,0.350927 -0.0536,0 -0.0975,0.03773 -0.0975,0.08384 0,0.08454 1.21057,0.202271 1.73124,0.168386 0.22665,-0.01476 0.28649,0.02228 0.31065,0.192283 0.0301,0.210439 0.0289,0.198871 -1.39411,0.210556 h -1.42399 l -0.55628,0.561481 c -0.30594,0.308814 -0.60025,0.561486 -0.65394,0.561486 -0.0537,0 -0.19524,0.105275 -0.3145,0.23395 -0.11926,0.128675 -0.282,0.233952 -0.36165,0.233952 -0.0797,0 -0.14483,0.0421 -0.14483,0.09358 0,0.05148 -0.0632,0.09357 -0.14038,0.09357 -0.0772,0 -0.14038,0.04211 -0.14038,0.09358 0,0.05147 -0.2316,0.09358 -0.514694,0.09358 -0.283094,2e-6 -0.51469,-0.04211 -0.51469,-0.09358 z m 4.585448,-0.655063 c 0,-0.05148 -0.1895,-0.09358 -0.4211,-0.09358 -0.30095,0 -0.42114,-0.03784 -0.42114,-0.132575 0,-0.17473 0.16189,-0.225581 0.56148,-0.176374 0.71934,0.08857 0.75885,0.107988 0.6323,0.310661 -0.12086,0.193535 -0.35154,0.253818 -0.35154,0.09187 z m -1.54785,-2.71992 c -0.0339,-0.0548 -0.1732,-0.09246 -0.30965,-0.08367 -0.58271,0.03757 -1.05181,-0.0081 -0.9967,-0.09741 0.062,-0.100269 1.33843,-0.13071 1.58081,-0.0377 0.12496,0.04795 0.12698,0.07451 0.0142,0.187161 -0.15742,0.157435 -0.20761,0.162931 -0.28878,0.03162 z" />
  </g>
  <g
     inkscape:groupmode="layer"
     id="layer2"
     inkscape:label="Layer 2"
     sodipodi:insensitive="true"
     style="display:none">
    <rect
       style="display:inline;opacity:0.545283;fill:#ff0000;fill-opacity:0.731092;stroke:none;stroke-width:0.0433013;stroke-linecap:square;paint-order:stroke fill markers;stop-color:#000000"
       id="LATCH_SWITCH"
       width="6.7877603"
       height="4.7109337"
       x="-2.7832033e-07"
       y="-5.0292968e-08" />
  </g>
</svg>
