<?xml version="1.0" encoding="UTF-8" standalone="no"?>
<!-- Created with Inkscape (http://www.inkscape.org/) -->

<svg
   width="6.8143244mm"
   height="4.7109337mm"
   viewBox="0 0 6.8143244 4.7109337"
   version="1.1"
   id="svg1225"
   inkscape:version="1.1 (c68e22c387, 2021-05-23)"
   sodipodi:docname="dawn_button_bg_gate.svg"
   xmlns:inkscape="http://www.inkscape.org/namespaces/inkscape"
   xmlns:sodipodi="http://sodipodi.sourceforge.net/DTD/sodipodi-0.dtd"
   xmlns="http://www.w3.org/2000/svg"
   xmlns:svg="http://www.w3.org/2000/svg">
  <sodipodi:namedview
     id="namedview1227"
     pagecolor="#505050"
     bordercolor="#eeeeee"
     borderopacity="1"
     inkscape:pageshadow="0"
     inkscape:pageopacity="0"
     inkscape:pagecheckerboard="0"
     inkscape:document-units="mm"
     showgrid="false"
     fit-margin-top="0"
     fit-margin-left="0"
     fit-margin-right="0"
     fit-margin-bottom="0"
     inkscape:snap-global="true"
     inkscape:zoom="32"
     inkscape:cx="13.859375"
     inkscape:cy="7.796875"
     inkscape:window-width="1832"
     inkscape:window-height="1007"
     inkscape:window-x="316"
     inkscape:window-y="442"
     inkscape:window-maximized="0"
     inkscape:current-layer="layer1"
     inkscape:snap-object-midpoints="true"
     inkscape:snap-center="true"
     inkscape:snap-text-baseline="true"
     inkscape:snap-bbox="true"
     inkscape:snap-bbox-midpoints="true"
     inkscape:snap-page="true"
     inkscape:snap-nodes="true"
     inkscape:snap-others="true"
     showguides="true"
     inkscape:guide-bbox="true"
     inkscape:object-paths="true"
     inkscape:snap-intersection-paths="true"
     inkscape:object-nodes="true"
     inkscape:snap-smooth-nodes="true"
     inkscape:snap-midpoints="true"
     inkscape:bbox-paths="true"
     inkscape:bbox-nodes="true"
     inkscape:snap-bbox-edge-midpoints="true">
    <sodipodi:guide
       position="6.8143244,2.8692797"
       orientation="1,0"
       id="guide1169" />
  </sodipodi:namedview>
  <defs
     id="defs1222" />
  <g
     inkscape:label="Layer 1"
     inkscape:groupmode="layer"
     id="layer1"
     transform="translate(-98.748215,-82.050911)"
     style="display:inline">
    <path
       style="display:inline;fill:#872a39;fill-opacity:1;stroke:none;stroke-width:0.0434039;stroke-linecap:square;paint-order:stroke fill markers;stop-color:#000000"
       d="m 98.742368,82.050911 v 4.710824 h 6.820172 v -4.710824 z"
       id="rect12144" />
    <path
       style="display:inline;fill:#000000;fill-opacity:1;stroke-width:0.0257844"
       d="m 101.8395,85.800812 c -0.0566,-0.162219 -0.0666,-0.343262 -0.0225,-0.402327 0.0443,-0.05906 0.0915,-0.600746 0.10512,-1.203737 l 0.0247,-1.096337 h -0.3407 c -0.18737,0 -0.35728,-0.04982 -0.37758,-0.110734 -0.0261,-0.07876 -0.0989,-0.072 -0.25178,0.02347 -0.20081,0.125414 -0.21485,0.205766 -0.21485,1.231433 0,0.666539 -0.0382,1.097263 -0.0975,1.097263 -0.0536,0 -0.0975,0.06577 -0.0975,0.146178 0,0.08038 0.0438,0.14618 0.0975,0.14618 0.0536,0 0.0975,0.08772 0.0975,0.194905 0,0.223888 -0.15034,0.253367 -0.33753,0.06618 -0.16891,-0.168906 -0.20634,-1.917781 -0.041,-1.917781 0.0733,0 0.0927,-0.117404 0.0564,-0.341083 -0.0305,-0.187595 -0.0305,-0.494572 0,-0.682167 l 0.0553,-0.341082 h 0.71001 c 0.47868,0 0.72318,-0.03942 0.75036,-0.120948 0.0295,-0.08796 0.0848,-0.07655 0.20302,0.04178 0.1376,0.137584 0.16273,0.389519 0.16273,1.631462 v 1.468749 h 1.26688 c 1.20191,0 1.26685,0.0099 1.26685,0.194905 0,0.117701 -0.0676,0.19798 -0.17053,0.202663 -0.0937,0.0043 -0.74918,0.02086 -1.4564,0.03687 l -1.28582,0.02913 z"
       id="path25133" />
  </g>
  <g
     inkscape:groupmode="layer"
     id="layer2"
     inkscape:label="Layer 2"
     style="display:none"
     sodipodi:insensitive="true">
    <path
       d="m 6.1359585,1.592875 c 0,-0.146863 -0.006,-0.421893 -0.013301,-0.61118201 -0.0136,-0.36480399 8.996e-4,-0.44317799 0.071,-0.37343899 0.0326,0.03255 0.0378,0.121452 0.0378,0.644699 0,0.591117 -9.26e-4,0.606941 -0.0475,0.606941 -0.0446,0 -0.0475,-0.01597 -0.048,-0.267019 z M 0.5823874,0.625666 c 0,-0.03165 0.0158001,-0.04747 0.0475,-0.04747 0.0316,0 0.0475,0.01582 0.0475,0.04747 0,0.03165 -0.0158001,0.04747 -0.0475,0.04747 -0.0316,0 -0.0475,-0.01582 -0.0475,-0.04747 z m 0.26108,0 c 0,-0.02637 0.0158,-0.04747 0.0356,-0.04747 0.0198,0 0.0356,0.0211 0.0356,0.04747 0,0.02637 -0.0158,0.04747 -0.0356,0.04747 -0.0198,0 -0.0356,-0.0211 -0.0356,-0.04747 z m 0.23735,0 c 0,-0.03165 0.0158,-0.04747 0.0475,-0.04747 0.0562,0 0.0596,0.01503 0.0135,0.06103 -0.046,0.046 -0.061,0.04266 -0.061,-0.01356 z m 0.284831,0 c 0,-0.05621 0.015,-0.05956 0.061,-0.01356 0.046,0.04599 0.0426,0.06103 -0.0135,0.06103 -0.0317,0 -0.0475,-0.01583 -0.0475,-0.04747 z m 0.28483,0.02373 c 0,-0.01306 0.0107,-0.02373 0.0237,-0.02373 0.0131,0 0.0237,0.01067 0.0237,0.02373 0,0.01306 -0.0107,0.02373 -0.0237,0.02373 -0.0131,0 -0.0237,-0.01067 -0.0237,-0.02373 z m 0.21361,-0.02373 c 0,-0.03165 0.0158,-0.04747 0.0475,-0.04747 0.0317,0 0.0475,0.01582 0.0475,0.04747 0,0.03165 -0.0158,0.04747 -0.0475,0.04747 -0.0317,0 -0.0475,-0.01582 -0.0475,-0.04747 z m 1.2342301,0 c 0,-0.03534 0.015801,-0.04747 0.0618,-0.04747 0.0466,0 0.0583,0.0092 0.0475,0.03754 -0.008,0.02065 -0.014301,0.042 -0.014301,0.04747 0,0.0055 -0.021299,0.0099 -0.0475,0.0099 -0.0317,0 -0.0475,-0.01582 -0.0475,-0.04747 z m 0.2229401,0.0099 c 0.008,-0.02065 0.014401,-0.042 0.014401,-0.04747 0,-0.0055 0.021299,-0.0099 0.0475,-0.0099 0.0317,0 0.0475,0.01582 0.0475,0.04747 0,0.03533 -0.015801,0.04747 -0.0618,0.04747 -0.0466,0 -0.0583,-0.0092 -0.0475,-0.03754 z m 1.2248999,-0.0099 c 0,-0.03482 0.015801,-0.04747 0.0593,-0.04747 0.0436,0 0.0594,0.01265 0.0594,0.04747 0,0.03481 -0.015801,0.04747 -0.0594,0.04747 -0.0436,0 -0.0593,-0.01265 -0.0593,-0.04747 z m 0.28482,0 c 0,-0.02611 0.0107,-0.04747 0.023699,-0.04747 0.0131,0 0.023799,0.01067 0.023799,0.02373 0,0.01306 0.015999,0.02373 0.0356,0.02373 0.0196,0 0.0356,0.01067 0.0356,0.02373 0,0.01306 -0.0268,0.02373 -0.0593,0.02373 -0.0436,0 -0.0594,-0.01265 -0.0594,-0.04747 z m 0.28483,0 c 0,-0.02611 0.0107,-0.04747 0.023699,-0.04747 0.012999,0 0.023699,0.01067 0.023699,0.02373 0,0.01306 0.015999,0.02373 0.0356,0.02373 0.0196,0 0.0356,0.01067 0.0356,0.02373 0,0.01306 -0.0268,0.02373 -0.0594,0.02373 -0.0436,0 -0.0594,-0.01265 -0.0594,-0.04747 z m 0.2848099,0.02373 c 0,-0.01306 0.0214,-0.02373 0.0475,-0.02373 0.026001,0 0.0475,0.01067 0.0475,0.02373 0,0.01306 -0.021299,0.02373 -0.0475,0.02373 -0.026001,0 -0.0475,-0.01067 -0.0475,-0.02373 z m 0.2848301,-0.02373 c 0,-0.03165 0.015801,-0.04747 0.0475,-0.04747 0.0317,0 0.0475,0.01582 0.0475,0.04747 0,0.03165 -0.015801,0.04747 -0.0475,0.04747 -0.0317,0 -0.0475,-0.01582 -0.0475,-0.04747 z m 0.21361,0.0339 c 0,-0.02328 0.0665,-0.08138 0.0932,-0.08138 0.0141,0 0.0254,0.02137 0.0254,0.04747 0,0.03481 -0.015801,0.04747 -0.0594,0.04747 -0.0327,0 -0.0593,-0.0062 -0.0593,-0.01356 z"
       style="fill:#000000;fill-opacity:1;stroke-width:0.00166156"
       id="path1040" />
    <path
       d="m 0.321814,4.453165 c -0.0213,-0.02415 -0.0297,-0.148731 -0.0297,-0.439893 0,-0.339714 0.006,-0.412374 0.0378,-0.443951 0.0683,-0.06828 0.0828,0.01195 0.0765,0.420909 l -0.006,0.391631 0.36129,0.0066 c 0.1987,0.0036 0.36129,0.01237 0.36129,0.0195 0,0.0072 -0.0153,0.0282 -0.0339,0.04685 -0.049,0.04897 -0.72387,0.04757 -0.76716,-0.0015 z m 0.47471,-0.49057 c -0.0294,-0.01373 -0.0534,-0.03934 -0.0534,-0.05692 0,-0.02544 0.0752,-0.03198 0.36789,-0.03198 0.231501,0 0.367891,-0.0089 0.367891,-0.02394 0,-0.01444 0.0183,-0.01255 0.046,0.0047 0.0341,0.02133 0.0601,0.02203 0.10088,0.0027 0.11299,-0.05358 0.27222,-0.102245 0.33454,-0.102245 0.0355,0 0.0645,-0.0099 0.0645,-0.02209 0,-0.01215 0.0241,-0.0255 0.0534,-0.02967 0.0442,-0.0064 0.0547,-0.02465 0.0606,-0.106406 0.008,-0.110732 0.063,-0.153441 0.1116,-0.08688 0.0274,0.03745 0.0327,0.03762 0.0682,0.0022 0.0211,-0.02117 0.0385,-0.04995 0.0385,-0.06393 0,-0.01399 0.0115,-0.02543 0.0254,-0.02543 0.0328,0 0.0932,-0.06038 0.0932,-0.09324 0,-0.01399 -0.0374,-0.02543 -0.083,-0.02543 -0.0456,0 -0.083,-0.0062 -0.083,-0.01356 0,-0.0331 0.0727,-0.0814 0.12291,-0.0817 0.1197,-7.27e-4 0.16191,-0.02608 0.16191,-0.09739 0,-0.03765 0.0107,-0.06844 0.0237,-0.06844 0.0131,0 0.0237,-0.03167 0.0237,-0.07037 0,-0.04795 0.0165,-0.07917 0.0516,-0.09798 0.0872,-0.04672 0.16201,-0.135331 0.16236,-0.192532 8.9e-4,-0.101425 0.0279,-0.161293 0.0736,-0.161293 0.0319,0 0.0447,0.01706 0.0447,0.05934 0,0.04747 0.0119,0.05934 0.0594,0.05934 0.0327,0 0.0594,-0.0081 0.0595,-0.01781 0,-0.03063 0.14915,-0.10435 0.16391,-0.08115 0.007,0.01207 0.0594,0.02952 0.11484,0.03879 0.0555,0.0092 0.10088,0.02659 0.10088,0.03851 0,0.01191 0.016,0.02165 0.0356,0.02165 0.0196,0 0.0356,-0.02022 0.0356,-0.04493 0,-0.04149 0.0644,-0.08841 0.0885,-0.06439 0.005,0.0057 0.0166,0.05658 0.0243,0.112935 0.0146,0.108614 0.0509,0.162538 0.10952,0.162538 0.0196,0 0.0433,0.02404 0.0525,0.0534 0.009,0.02937 0.0367,0.07068 0.0609,0.09179 0.0243,0.02111 0.0441,0.06117 0.0441,0.08901 0,0.02918 0.0151,0.05062 0.0356,0.05062 0.0221,0 0.0356,0.02242 0.0356,0.05934 0,0.05596 0.007,0.05934 0.128,0.05934 0.11638,0 0.15682,0.02115 0.15682,0.08199 0,0.0038 -0.0417,0.01357 -0.0928,0.02172 -0.078,0.01248 -0.0907,0.02235 -0.0804,0.06237 0.007,0.02615 0.0218,0.04754 0.0334,0.04754 0.0115,0 0.0209,0.01145 0.0209,0.02543 0,0.01398 0.017,0.04242 0.0377,0.06318 0.0321,0.03207 0.0409,0.0327 0.0591,0.0042 0.0116,-0.01843 0.0213,-0.04686 0.0216,-0.06318 0,-0.01631 0.0217,-0.02967 0.0479,-0.02967 0.0405,0 0.0475,0.01582 0.0475,0.108504 0,0.118111 0.0386,0.176319 0.11698,0.176319 0.0271,0 0.0491,0.0089 0.0491,0.01984 0,0.01092 0.064,0.03762 0.14204,0.05934 0.11383,0.03165 0.25204,0.0395 0.69545,0.0395 0.53074,0 0.68074,0.01698 0.68137,0.07714 0,0.0097 -0.2882,0.01781 -0.64066,0.01781 -0.41141,0 -0.64086,-0.0085 -0.64086,-0.02373 0,-0.01306 -0.0414,-0.02373 -0.0921,-0.02373 -0.0529,0 -0.10462,-0.01516 -0.12158,-0.03561 -0.0162,-0.01958 -0.0496,-0.03561 -0.0741,-0.03561 -0.0245,0 -0.0446,-0.01067 -0.0446,-0.02373 0,-0.01306 -0.016,-0.02373 -0.0356,-0.02373 -0.0249,0 -0.0356,0.02506 -0.0356,0.08307 0,0.07227 -0.007,0.08307 -0.058,0.08307 -0.0541,0 -0.0579,-0.0081 -0.057,-0.123835 8.5e-4,-0.06964 -0.0105,-0.127639 -0.0251,-0.132523 -0.0143,-0.0047 -0.026,-0.02382 -0.026,-0.04231 0,-0.0185 -0.0143,-0.03363 -0.0316,-0.03363 -0.0174,0 -0.0459,-0.0267 -0.0634,-0.05934 -0.0174,-0.03264 -0.0406,-0.05934 -0.0515,-0.05934 -0.0109,0 -0.0198,-0.02137 -0.0198,-0.04747 0,-0.02611 -0.0107,-0.04747 -0.0237,-0.04747 -0.013,0 -0.0237,-0.01602 -0.0237,-0.03561 0,-0.02769 -0.0317,-0.03561 -0.14241,-0.03561 -0.12658,0 -0.14241,-0.0053 -0.14241,-0.04747 0,-0.03843 0.0158,-0.04747 0.0831,-0.04747 0.0727,0 0.083,-0.0073 0.083,-0.05934 0,-0.03263 -0.009,-0.05934 -0.0211,-0.05934 -0.0116,0 -0.0277,-0.02625 -0.0358,-0.05832 -0.0142,-0.05655 -0.11105,-0.179018 -0.14158,-0.179018 -0.008,0 -0.0151,0.02048 -0.0151,0.04553 0,0.07692 -0.0268,0.120617 -0.0737,0.120617 -0.0388,0 -0.0449,-0.01832 -0.0449,-0.132238 0,-0.142571 -0.0336,-0.200054 -0.11699,-0.200054 -0.0271,0 -0.0491,-0.01068 -0.0491,-0.02373 0,-0.01306 -0.0592,-0.02373 -0.13135,-0.02373 -0.11498,0 -0.1401,0.0089 -0.20175,0.07203 -0.054,0.05535 -0.0703,0.09382 -0.0703,0.166146 0,0.07717 -0.008,0.09413 -0.0458,0.09413 -0.0289,0 -0.0486,-0.01906 -0.0534,-0.05155 -0.009,-0.06003 -0.0669,-0.08911 -0.0669,-0.0335 0,0.02067 -0.0107,0.03759 -0.0238,0.03759 -0.0131,0 -0.0237,0.02022 -0.0237,0.04493 0,0.02472 -0.016,0.05108 -0.0356,0.05859 -0.0196,0.0075 -0.0356,0.0407 -0.0356,0.07374 0,0.03305 -0.0133,0.06081 -0.0296,0.06169 -0.0163,8.97e-4 -0.003,0.01405 0.0296,0.02924 0.0627,0.02925 0.11868,0.07538 0.11868,0.09799 0,0.0074 -0.0423,0.01356 -0.0941,0.01356 -0.0723,0 -0.1108,0.0163 -0.16615,0.07041 -0.0397,0.03872 -0.072,0.07655 -0.072,0.08408 0,0.01528 -0.0334,0.05738 -0.11273,0.142273 -0.0293,0.03141 -0.0534,0.06829 -0.0534,0.08192 0,0.01365 -0.009,0.02481 -0.0208,0.02481 -0.0115,0 -0.0257,0.05873 -0.0316,0.130514 -0.0123,0.14731 -0.0198,0.16154 -0.0747,0.140457 -0.0256,-0.0098 -0.039,-0.04269 -0.039,-0.0955 0,-0.08871 -0.0253,-0.0983 -0.11867,-0.04494 -0.0327,0.01866 -0.0941,0.0343 -0.13648,0.03476 -0.0425,4.27e-4 -0.0771,0.01153 -0.0771,0.02459 0,0.01306 -0.0418,0.02373 -0.093,0.02373 -0.0512,0 -0.097,0.01203 -0.1019,0.02673 -0.012,0.03602 -0.746031,0.04918 -0.819841,0.0147 z m 2.492861,0.01428 c -0.0193,-0.0078 -0.009,-0.02999 0.0296,-0.06613 0.0323,-0.0299 0.0587,-0.07482 0.0587,-0.09982 0,-0.02499 0.0213,-0.06084 0.0475,-0.07966 0.026,-0.01882 0.0475,-0.04711 0.0475,-0.06289 0,-0.01577 0.0173,-0.04596 0.0385,-0.06709 0.0499,-0.04992 0.0356,-0.06136 -0.0831,-0.06609 -0.0849,-0.0034 -0.0978,-0.01104 -0.0978,-0.05819 0,-0.05139 0.009,-0.0543 0.16614,-0.0543 h 0.16615 v 0.08138 c 0,0.04476 -0.016,0.0974 -0.0356,0.116981 -0.0196,0.01958 -0.0356,0.04705 -0.0356,0.06103 0,0.01399 -0.0107,0.02542 -0.0238,0.02542 -0.0131,0 -0.0237,0.02022 -0.0237,0.04493 0,0.02472 -0.016,0.05109 -0.0356,0.05859 -0.0196,0.0075 -0.0356,0.03143 -0.0356,0.05316 0,0.0435 -0.0871,0.129229 -0.12824,0.126267 -0.0143,-0.0011 -0.0391,-0.0072 -0.0551,-0.01363 z m -0.53411,-0.28257 c -0.007,-0.0073 -0.007,-0.03399 -9.2e-4,-0.05934 0.0107,-0.04072 0.0338,-0.04609 0.19918,-0.04609 0.18376,0 0.18712,0.0011 0.18712,0.05934 0,0.05824 -0.004,0.05934 -0.18594,0.05934 -0.10231,0 -0.19188,-0.0059 -0.19917,-0.01323 z M 0.938934,3.268547 c -0.045,-0.05111 -0.0372,-0.05943 0.0559,-0.05943 0.0683,0 0.0827,0.0076 0.0712,0.03754 -0.008,0.02065 -0.0144,0.04201 -0.0144,0.04747 0,0.02433 -0.086,0.0048 -0.11274,-0.02557 z m 0.30263,-0.01197 c 0,-0.03481 0.0158,-0.04747 0.0594,-0.04747 0.0436,0 0.0593,0.01265 0.0593,0.04747 0,0.03482 -0.0158,0.04747 -0.0593,0.04747 -0.0436,0 -0.0594,-0.01265 -0.0594,-0.04747 z m 0.284821,0.0339 c 0,-0.0075 0.0178,-0.03139 0.0397,-0.05319 0.0288,-0.02882 0.0422,-0.0316 0.0494,-0.01015 0.005,0.01621 0.025,0.02945 0.0435,0.02945 0.0185,0 0.0336,0.01068 0.0336,0.02373 0,0.01306 -0.0374,0.02373 -0.0831,0.02373 -0.0456,0 -0.083,-0.0062 -0.083,-0.01356 z m 0.28481,0 c 0,-0.0075 0.016,-0.02958 0.0356,-0.04916 0.0317,-0.03165 0.0396,-0.03165 0.0712,0 0.0512,0.05119 0.0447,0.06273 -0.0356,0.06273 -0.0392,0 -0.0711,-0.0062 -0.0711,-0.01356 z m 0.27042,-0.02398 c 0.008,-0.02065 0.0144,-0.042 0.0144,-0.04747 0,-0.02399 0.0777,-0.0068 0.1085,0.02398 0.0509,0.05085 0.0422,0.06103 -0.0517,0.06103 -0.0684,0 -0.0827,-0.0076 -0.0712,-0.03754 z m 0.84513,-0.0099 c 0,-0.03842 0.0158,-0.04747 0.0831,-0.04747 0.0673,0 0.083,0.009 0.083,0.04747 0,0.03843 -0.0158,0.04747 -0.083,0.04747 -0.0673,0 -0.0831,-0.009 -0.0831,-0.04747 z m 0.28483,0 c 0,-0.03533 0.0158,-0.04747 0.0618,-0.04747 0.0466,0 0.0583,0.0092 0.0475,0.03755 -0.008,0.02065 -0.0144,0.042 -0.0144,0.04747 0,0.0055 -0.0213,0.0099 -0.0475,0.0099 -0.0317,0 -0.0475,-0.01583 -0.0475,-0.04747 z m 0.26109,0 c 0,-0.05561 0.0369,-0.0615 0.0848,-0.01356 0.048,0.04793 0.0424,0.06103 -0.0254,0.06103 -0.0436,0 -0.0594,-0.01265 -0.0594,-0.04747 z m 0.97314,0.0339 c 0,-0.0075 0.016,-0.02958 0.0356,-0.04916 0.0317,-0.03165 0.0396,-0.03165 0.0712,0 0.0513,0.05119 0.0447,0.06273 -0.0356,0.06273 -0.0392,0 -0.0712,-0.0062 -0.0712,-0.01356 z m 0.26109,-0.0339 c 0,-0.03481 0.0158,-0.04747 0.0593,-0.04747 0.0436,0 0.0594,0.01265 0.0594,0.04747 0,0.03482 -0.0158,0.04747 -0.0594,0.04747 -0.0436,0 -0.0593,-0.01265 -0.0593,-0.04747 z m 0.28483,0.03229 c 0,-0.01842 0.0761,-0.07795 0.10088,-0.079 0.0102,-4.26e-4 0.0178,0.02061 0.0178,0.04672 0,0.03482 -0.0158,0.04747 -0.0594,0.04747 -0.0327,0 -0.0593,-0.0069 -0.0593,-0.01518 z m 0.23733,-0.0085 c 0,-0.01305 0.0205,-0.02373 0.0455,-0.02373 0.0251,0 0.0495,-0.0121 0.0544,-0.02688 0.0126,-0.03785 0.11368,-0.0019 0.11368,0.04035 0,0.02447 -0.0299,0.034 -0.10681,0.034 -0.0587,0 -0.1068,-0.01067 -0.1068,-0.02373 z m 0.28483,-0.02373 c 0,-0.03869 0.0158,-0.04747 0.0856,-0.04747 0.0684,0 0.0827,0.0076 0.0712,0.03754 -0.008,0.02065 -0.0144,0.04201 -0.0144,0.04747 0,0.0055 -0.032,0.0099 -0.0712,0.0099 -0.0554,0 -0.0712,-0.01055 -0.0712,-0.04747 z m 0.26108,0 c 0,-0.05681 0.0807,-0.06509 0.13225,-0.01356 0.0506,0.05062 0.0422,0.06103 -0.0491,0.06103 -0.0673,0 -0.0831,-0.009 -0.0831,-0.04747 z m 0.28483,0 c 0,-0.03481 0.0158,-0.04747 0.0594,-0.04747 0.0435,0 0.0593,0.01265 0.0593,0.04747 0,0.03482 -0.0158,0.04747 -0.0593,0.04747 -0.0436,0 -0.0594,-0.01265 -0.0594,-0.04747 z M 0.665314,3.042785 c -0.0225,-0.02626 -0.0409,-0.08584 -0.0409,-0.132404 0,-0.06715 0.0194,-0.103925 0.094,-0.177744 0.0517,-0.05119 0.11046,-0.09308 0.13055,-0.09308 0.0201,0 0.0365,-0.01067 0.0365,-0.02373 0,-0.01306 0.0427,-0.02373 0.0949,-0.02373 0.0522,0 0.0949,0.01067 0.0949,0.02373 0,0.01306 -0.016,0.02373 -0.0356,0.02373 -0.0196,0 -0.0356,0.01068 -0.0356,0.02373 0,0.01306 -0.0164,0.02373 -0.0365,0.02373 -0.0369,0 -0.14061,0.05891 -0.19498,0.110739 -0.0163,0.01555 -0.0297,0.06108 -0.0297,0.101178 0,0.07254 9e-4,0.07289 0.13054,0.07289 0.0718,0 0.13055,-0.01068 0.13055,-0.02373 0,-0.01306 -0.0214,-0.02373 -0.0475,-0.02373 -0.0571,0 -0.0612,-0.03712 -0.01,-0.08862 0.0239,-0.02395 0.0435,-0.02884 0.0534,-0.01337 0.008,0.01341 0.0385,0.03151 0.0664,0.04022 0.0493,0.01539 0.0898,0.121368 0.0628,0.164899 -0.006,0.01119 -0.0438,0.0141 -0.0818,0.0065 -0.0489,-0.0097 -0.0732,-0.0035 -0.0827,0.02134 -0.0219,0.05715 -0.24828,0.04767 -0.29984,-0.01255 z m 0.623721,0.01783 c 0,-0.01646 0.0268,-0.0587 0.0593,-0.0939 0.0327,-0.0352 0.0594,-0.07258 0.0594,-0.08307 0,-0.0105 0.0268,-0.04787 0.0593,-0.08307 0.0327,-0.0352 0.0594,-0.08582 0.0594,-0.112501 0,-0.02668 0.0107,-0.0485 0.0237,-0.0485 0.0131,0 0.0237,-0.02671 0.0237,-0.05934 0,-0.06321 0.0431,-0.07796 0.0902,-0.03085 0.0345,0.03452 0.0383,0.394222 0.004,0.446221 -0.0154,0.02373 -0.0232,0.02571 -0.0234,0.0059 0,-0.01631 -0.0164,-0.02967 -0.036,-0.02967 -0.0198,0 -0.0356,-0.0211 -0.0356,-0.04747 0,-0.02611 -0.0108,-0.04747 -0.0237,-0.04747 -0.0131,0 -0.0237,0.01068 -0.0237,0.02373 0,0.01306 -0.016,0.02373 -0.0356,0.02373 -0.0196,0 -0.0356,0.02064 -0.0356,0.04587 0,0.02523 -0.0213,0.05265 -0.0475,0.06094 -0.026,0.0083 -0.0475,0.02502 -0.0475,0.03721 0,0.01218 -0.016,0.02213 -0.0356,0.02213 -0.0196,0 -0.0356,-0.01346 -0.0356,-0.0299 z m 3.48905,-0.01756 c 0,-0.02611 0.0107,-0.04747 0.0238,-0.04747 0.0131,0 0.0237,-0.01087 0.0237,-0.02415 0,-0.01329 0.0374,-0.06047 0.083,-0.104832 0.0456,-0.04437 0.083,-0.102927 0.083,-0.130123 0,-0.04278 -0.0143,-0.04946 -0.10681,-0.04946 -0.0909,0 -0.10681,-0.0071 -0.10681,-0.04747 0,-0.04352 0.0158,-0.04747 0.18988,-0.04747 0.18672,0 0.18989,10e-4 0.18989,0.05934 0,0.03264 -0.0107,0.05934 -0.0238,0.05934 -0.0131,0 -0.0237,0.01761 -0.0237,0.03914 0,0.02152 -0.0374,0.07544 -0.083,0.119818 -0.0456,0.04437 -0.083,0.09084 -0.083,0.103274 0,0.03548 -0.0911,0.117531 -0.13054,0.117531 -0.0198,0 -0.0356,-0.0211 -0.0356,-0.04747 z m -2.47281,-0.01637 -0.0637,-0.01025 0.004,-0.241859 0.004,-0.241862 0.11276,-0.0073 c 0.062,-0.0039 0.11274,0.0029 0.11274,0.01522 0,0.01235 0.0272,0.02927 0.0603,0.03759 0.0914,0.02295 0.0455,0.06122 -0.0736,0.06122 -0.0966,0 -0.10542,0.0049 -0.10542,0.05934 0,0.04747 0.0119,0.05934 0.0594,0.05934 0.0436,0 0.0594,0.01265 0.0594,0.04747 0,0.03481 -0.0158,0.04747 -0.0594,0.04747 -0.037,0 -0.0594,0.01345 -0.0594,0.03561 0,0.02486 0.0251,0.03561 0.083,0.03561 0.0673,0 0.083,0.009 0.083,0.04747 0,0.02611 -0.0133,0.04761 -0.0296,0.04779 -0.0163,2.68e-4 -0.0511,0.0041 -0.0771,0.0088 -0.026,0.0047 -0.0762,0.0038 -0.11119,-0.0017 z m 1.96989,-0.07263 c -0.006,-0.07651 -0.0162,-0.09004 -0.0706,-0.09632 -0.0348,-0.004 -0.0698,-0.02425 -0.0777,-0.04494 -0.0195,-0.05084 0.007,-0.07373 0.0354,-0.03014 0.0157,0.02442 0.0278,0.02696 0.0403,0.0084 0.0103,-0.01456 0.0418,-0.03398 0.0712,-0.04313 0.0395,-0.01231 0.0534,-0.03485 0.0534,-0.08627 0,-0.09474 0.0426,-0.08855 0.0519,0.0075 0.006,0.06601 0.0176,0.07831 0.0786,0.08522 0.0651,0.0074 0.1056,0.03765 0.10652,0.07951 0,0.0089 -0.0397,0.01968 -0.0887,0.02373 -0.0793,0.0066 -0.0898,0.01517 -0.0971,0.0785 -0.007,0.06504 -0.0377,0.105594 -0.0796,0.106525 -0.009,2.68e-4 -0.0197,-0.0397 -0.0237,-0.08864 z m -2.36852,-0.09495 c 0.006,-0.217426 0.006,-0.21955 -0.048,-0.21955 -0.0348,0 -0.0475,-0.01583 -0.0475,-0.05934 0,-0.05671 0.006,-0.05934 0.14242,-0.05934 0.13473,0 0.18824,0.03137 0.10679,0.06262 -0.0279,0.01072 -0.0356,0.05901 -0.0356,0.224738 v 0.211078 h -0.0615 c -0.0606,0 -0.0614,-0.0025 -0.0567,-0.160213 z M 1.027944,2.382424 c 0,-0.01523 -0.032,-0.02769 -0.0712,-0.02769 -0.0392,0 -0.0712,-0.01067 -0.0712,-0.02373 0,-0.04075 0.13604,-0.02712 0.1523,0.01526 0.008,0.02146 0.009,0.0446 0.003,0.05143 -0.006,0.0069 -0.0125,0 -0.0125,-0.01526 z m 0.737651,0.0021 c -9.1e-4,-0.02222 -0.0854,-0.02925 -0.33667,-0.02822 -0.305741,0.0012 -0.380341,-0.0064 -0.350981,-0.0357 0.005,-0.0057 0.397381,-0.01252 0.870301,-0.01505 0.53823,-0.0029 0.85983,-0.01323 0.85983,-0.0277 0,-0.01335 0.0175,-0.01514 0.0415,-0.0043 0.0548,0.02492 0.21837,0.0276 1.88694,0.0309 0.92776,0.0018 1.41818,0.01102 1.41818,0.02654 0,0.01444 -0.10616,0.02373 -0.27098,0.02373 -0.19357,0 -0.27493,0.0085 -0.28482,0.02967 -0.0111,0.02373 -0.0166,0.02373 -0.0278,0 -0.018,-0.0385 -0.12102,-0.0385 -0.13665,0 -0.009,0.0224 -0.0188,0.02094 -0.0395,-0.0059 -0.0207,-0.02688 -0.0302,-0.02833 -0.0395,-0.0059 -0.0157,0.03873 -0.19033,0.03873 -0.20604,0 -0.009,-0.02226 -0.0169,-0.02277 -0.0319,-0.002 -0.0211,0.02963 -0.23886,0.02922 -0.287,-5.55e-4 -0.0155,-0.0095 -0.0476,-0.0071 -0.0714,0.0056 -0.0281,0.01502 -0.10916,0.01494 -0.23145,-2.69e-4 -0.13086,-0.01625 -0.19081,-0.01572 -0.19662,0.0017 -0.0106,0.03189 -0.12308,0.03312 -0.12308,0.0013 0,-0.01306 -0.0214,-0.02373 -0.0475,-0.02373 -0.026,0 -0.0475,0.0089 -0.0475,0.01997 0,0.03084 -0.22265,0.02698 -0.24496,-0.0042 -0.0149,-0.02072 -0.0228,-0.02021 -0.0319,0.0021 -0.0144,0.03536 -0.12677,0.04026 -0.12677,0.0055 0,-0.01568 -0.077,-0.01909 -0.21954,-0.0097 -0.24389,0.01605 -0.2842,0.01617 -0.53999,0.0015 -0.10766,-0.0062 -0.19044,0 -0.2095,0.01547 -0.0225,0.01832 -0.0361,0.01834 -0.0475,0 -0.0201,-0.03217 -0.43135,-0.03793 -0.43135,-0.006 0,0.01255 -0.016,0.02281 -0.0356,0.02281 -0.0196,0 -0.0356,-0.01068 -0.0356,-0.02373 0,-0.01306 -0.0214,-0.02373 -0.0475,-0.02373 -0.026,0 -0.0475,0.01068 -0.0475,0.02373 0,0.01305 -0.016,0.02373 -0.0356,0.02373 -0.0196,0 -0.0356,-0.01068 -0.0356,-0.02373 0,-0.0353 -0.23098,-0.02971 -0.24536,0.0059 -0.009,0.02361 -0.0124,0.02363 -0.0138,0 z M 0.735204,2.125306 c -0.0323,-0.03227 -0.0141,-0.05538 0.0435,-0.05538 0.0326,0 0.0593,-0.01068 0.0593,-0.02373 0,-0.01306 0.016,-0.02373 0.0356,-0.02373 0.0196,0 0.0356,0.01068 0.0356,0.02373 0,0.01306 0.0214,0.02373 0.0475,0.02373 0.0261,0 0.0475,-0.01068 0.0475,-0.02373 0,-0.01516 0.20478,-0.02373 0.566861,-0.02373 h 0.56686 l 0.002,-0.715007 c 0.002,-0.654802 0.005,-0.717592 0.0443,-0.745697 0.0263,-0.01923 0.0518,-0.02251 0.0684,-0.0088 0.0146,0.01205 0.16639,0.02072 0.33752,0.0193 0.24512,-0.002 0.31857,0.0048 0.34615,0.03242 0.0287,0.0287 0.0359,0.141403 0.0398,0.625514 0.003,0.388647 0.0137,0.601978 0.0311,0.624046 0.0195,0.0249 0.0187,0.0361 -0.004,0.04352 -0.0163,0.0055 -0.0296,0.03579 -0.0296,0.06735 v 0.05736 h 0.30856 0.30856 l 0.004,-0.314492 c 0.003,-0.17297 0.002,-0.345175 -8.5e-4,-0.38268 -0.003,-0.0375 0.006,-0.08195 0.0206,-0.09876 0.0176,-0.02124 0.0177,-0.03527 0,-0.04596 -0.0323,-0.01999 -0.0323,-0.195037 -2e-5,-0.215031 0.0136,-0.0084 0.0216,-0.03819 0.0178,-0.06609 -0.004,-0.03298 0.007,-0.0536 0.0343,-0.05897 0.0388,-0.0077 0.0415,0.03558 0.0415,0.646197 v 0.654457 l -0.17207,-2.69e-4 c -0.15369,-2.69e-4 -0.35751,-0.02312 -0.54591,-0.0615 -0.0596,-0.01213 -0.0652,-0.02267 -0.0652,-0.11978 0,-0.05857 -0.0119,-0.128776 -0.0266,-0.156027 -0.0167,-0.0313 -0.0286,-0.246978 -0.0322,-0.585886 l -0.005,-0.536328 -0.18714,-0.0078 c -0.10869,-0.0046 -0.19471,-0.01945 -0.2052,-0.03561 -0.0137,-0.0212 -0.0224,-0.02122 -0.0361,0 -0.0102,0.01526 -0.0553,0.03128 -0.10088,0.03561 -0.0983,0.0093 -0.0881,-0.07925 -0.0944,0.820795 l -0.004,0.646784 h -0.74155 c -0.407851,0 -0.748661,-0.0072 -0.757361,-0.01582 z m 3.657201,-0.02645 c -0.0359,-0.02196 -0.0652,-0.04812 -0.0652,-0.05816 0,-0.01005 0.37269,-0.01824 0.82819,-0.01824 0.74634,0 0.82966,0.0038 0.84316,0.039 0.008,0.02146 0.008,0.04548 8.5e-4,0.0534 -0.008,0.008 -0.35795,0.01655 -0.77787,0.01916 -0.67904,0.0042 -0.77072,3.6e-4 -0.82878,-0.03517 z M 4.276885,1.518072 c -0.002,-0.251296 -0.004,-0.542349 -0.006,-0.646783 l -0.003,-0.189881 -0.27889,-0.0067 -0.27889,-0.0067 v 0.06009 c 0,0.04828 -0.0116,0.06009 -0.0594,0.06009 -0.0545,0 -0.0593,-0.0087 -0.0593,-0.106806 v -0.10681 h 0.39162 0.39164 v 0.666281 c 0,0.545794 -0.006,0.67241 -0.0339,0.700188 -0.0187,0.01865 -0.04,0.0339 -0.0475,0.0339 -0.007,0 -0.0149,-0.205602 -0.0163,-0.456902 z m 2.12961,-0.601261 c -0.008,-0.02065 -0.0144,-0.1595 -0.0144,-0.308557 V 0.337241 h -0.30856 c -0.28683,0 -0.30856,-0.0032 -0.30856,-0.04489 0,-0.06439 0.0805,-0.0776 0.43125,-0.07073 l 0.30454,0.0059 v 0.329483 c 0,0.253907 -0.007,0.337263 -0.0339,0.363392 -0.043,0.04305 -0.0526,0.04256 -0.0703,-0.0037 z M 5.680035,0.266027 c 0,-0.01306 0.0107,-0.02373 0.0237,-0.02373 0.0131,0 0.0237,0.01067 0.0237,0.02373 0,0.01306 -0.0107,0.02373 -0.0237,0.02373 -0.0131,0 -0.0237,-0.01068 -0.0237,-0.02373 z"
       style="display:inline;fill:#000000;fill-opacity:1;stroke-width:0.00627991"
       id="path1461"
       sodipodi:nodetypes="csccccsccccsssccssccccssssscsssccssscccsssccsccsssssccsscccsssscscssscsssssccsscssssssssscssssssscsscssscsccsscscssccsccsscccccscsccsscssssssscccccssscccscsccssssscccssscccccscccscscssssscscssccscsssccssssssssccsscccscsscccscssccccsccssssscscssssssscssssccccccccccscssscccsssssscsscccsscssssssscsscccccccscsssssssscsccccccccscccccccccssscscscccssccccccccsccsscccccccccccsssccsccccsssssssccccssssssscccccccccsccccccccccscccscccccccccscccssccccccccccssscccscscccscssccscccsssss" />
  </g>
</svg>
